<?xml version="1.0" encoding="utf-8"?>
<!-- Generator: Adobe Illustrator 16.0.0, SVG Export Plug-In . SVG Version: 6.00 Build 0)  -->

<svg version="1.1" id="Layer_1" xmlns="http://www.w3.org/2000/svg" xmlns:xlink="http://www.w3.org/1999/xlink" x="0px" y="0px"
	 width="100.002px" height="99.998px" viewBox="-0.001 0.001 100.002 99.998" enable-background="new -0.001 0.001 100.002 99.998"
	 xml:space="preserve">
<g>
	<g>
		<path fill="#707805" d="M52.496,68.264c-2.286-9.859-0.049-18.252,3.948-23c4.06-4.828,8.595-8.392,12.103-13.23L64.92,44.039
			c-4.948,2.586-9.313,6.15-11.09,14.143c-0.758,3.399-0.537,6.985-0.615,10.309c0.433-10.248,4.753-17.252,9.771-20.09
			c5.104-2.877,10.322-4.375,14.904-7.494l-6.709,10.041c-5.014,0.449-9.719,2.142-13.336,8.516
			c-1.631,2.873-2.398,6.339-3.368,9.43c3.183-9.451,9.144-14.205,14.633-14.734c5.582-0.539,10.896,0.279,16.05-0.705
			L67.404,66.607l25.35-16.317l-0.157,0.069c0.392-0.271,0.778-0.561,1.167-0.869c6.003-4.824,7.236-15.073,5.542-21.646v-0.002
			l-0.005-0.017c-0.172-0.656-0.369-1.284-0.596-1.863l-13.76,16.689l13.764-12.352c-0.096,3.475-0.558,7.234-2.266,10.578
			c-6.129,12.004-15.576,9.473-24.281,9.997L84.18,34.703l-0.131,0.134c0.291-0.424,0.58-0.858,0.861-1.315
			c4.34-7.093,2.719-17.254-0.656-22.72H84.25l-0.006-0.012c-0.338-0.552-0.693-1.054-1.063-1.498l-8.42,21.551l9.599-17.478
			c0.852,3.309,1.438,7.045,0.736,10.912C82.67,37.684,73.691,39.686,65.834,43.57l7.019-19.99l-0.091,0.178
			c0.168-0.516,0.324-1.044,0.469-1.598c2.232-8.481-1.963-17.413-6.588-21.18V0.975l-0.016-0.009
			c-0.461-0.373-0.928-0.696-1.396-0.965L62.944,23.82L67.42,3.359c1.67,2.771,3.205,6.057,3.56,10
			c2.069,22.898-21.723,23.152-20.616,44.914C50.545,61.791,51.699,65.09,52.496,68.264z"/>
		<path fill="#707805" d="M49.637,58.273c1.105-21.762-22.685-22.016-20.617-44.914c0.357-3.943,1.89-7.229,3.56-10l4.474,20.461
			L34.769,0.001c-0.466,0.269-0.933,0.593-1.396,0.965l-0.016,0.009V0.98c-4.624,3.767-8.818,12.697-6.588,21.18
			c0.147,0.554,0.301,1.082,0.469,1.598l-0.091-0.178l7.019,19.99c-7.858-3.885-16.837-5.887-19.262-19.293
			c-0.701-3.867-0.116-7.604,0.736-10.912l9.599,17.478l-8.42-21.551c-0.369,0.444-0.725,0.946-1.063,1.498l-0.006,0.012h-0.004
			c-3.375,5.466-4.995,15.627-0.655,22.72c0.281,0.457,0.571,0.892,0.861,1.315l-0.132-0.134l12.016,16.173
			c-8.702-0.522-18.151,2.007-24.281-9.997c-1.709-3.344-2.169-7.104-2.265-10.578l13.763,12.352L1.295,25.963
			c-0.229,0.579-0.426,1.206-0.598,1.863l-0.004,0.017v0.002c-1.691,6.573-0.461,16.821,5.541,21.646
			c0.391,0.309,0.775,0.598,1.168,0.869L7.246,50.29l25.349,16.317L14.84,53.453c5.155,0.984,10.466,0.166,16.049,0.705
			c5.49,0.529,11.449,5.283,14.633,14.734c-0.97-3.092-1.737-6.557-3.37-9.43c-3.615-6.373-8.319-8.066-13.335-8.516l-6.709-10.041
			c4.582,3.119,9.802,4.617,14.905,7.494c5.019,2.838,9.339,9.842,9.771,20.09c-0.076-3.323,0.142-6.909-0.614-10.309
			c-1.779-7.992-6.142-11.557-11.092-14.143l-3.627-12.006c3.507,4.839,8.043,8.402,12.103,13.23c3.996,4.748,6.234,13.141,3.949,23
			C48.304,65.09,49.457,61.791,49.637,58.273z"/>
	</g>
	<g>
		<path d="M6.848,95.275c-4.698,0-6.72-3.306-6.827-5.762c-0.081-1.262,0.108-2.947,0.956-4.068
			c0.325,0.299,0.792,0.682,1.009,0.873c-0.572,0.978-0.655,2.348-0.572,3.142c0.163,1.772,1.666,4.394,5.542,4.394h6.062
			c2.401,0,5.16-1.009,5.16-4.014c0-3.081-2.949-3.984-5.16-3.984H9.139v-3.576c-0.054-2.813,1.666-4.065,4.37-4.065
			c2.374,0,4.26,0.954,4.615,3.474h-1.557c-0.191-1.666-1.475-2.136-3.032-2.136c-1.748,0-2.757,0.655-2.922,2.646v2.32h2.895
			c2.457,0,6.116,1.315,6.116,5.322c0,4.045-3.659,5.436-6.469,5.436H6.848L6.848,95.275z M9.031,99.999H7.31V98.17h1.721V99.999z
			 M12.773,99.999h-1.722V98.17h1.722V99.999z"/>
		<path d="M29.14,90.551c-3.493,0-6.062-2.617-6.062-5.896c0-3.25,2.321-6.278,6.062-6.278c1.885,0,4.696,0,4.696,0v12.205
			c0,3.167-2.212,4.829-4.997,4.669c-1.121-0.086-2.402-0.547-2.703-0.738c0,0-0.083-0.684-0.164-1.365
			c1.119,0.627,2.02,0.688,2.704,0.709c2.211,0.086,3.66-1.195,3.688-3.305C32.36,90.551,30.778,90.551,29.14,90.551z M32.36,89.156
			v-9.42c0,0-2.048,0-3.221,0c-2.814,0-4.425,2.596-4.425,4.67c0,2.352,1.611,4.75,4.425,4.75
			C31.953,89.156,32.36,89.156,32.36,89.156z"/>
		<path d="M39.249,90.551h-1.474v-17.72h1.474V90.551z"/>
		<path d="M50.475,82.357c-0.162-2.019-1.119-2.646-2.838-2.646c-1.557,0-2.95,0.463-3.171,2.13h-1.444
			c0.382-2.542,2.266-3.494,4.614-3.494c2.73,0,4.366,1.256,4.366,4.063v6.746h3.877v1.395H42.691v-1.395h7.781v-6.799H50.475z"/>
		<path d="M60.615,90.551h-4.97v-1.395h4.97V90.551z"/>
		<path d="M65.369,90.551h-4.97v-1.395h4.97V90.551z"/>
		<path d="M70.123,90.551h-4.972v-1.395h4.972V90.551z"/>
		<path d="M69.904,90.551v-1.395h2.241c2.019,0,3.248-1.198,3.248-3.356v-6.554h1.476v5.869c0.053,2.269,1.199,4.041,3.713,4.041
			h1.121v1.395h-0.875c-2.104,0-3.767-1.365-4.316-2.704c-0.463,1.364-1.529,2.704-3.985,2.704H69.904z M76.951,75.533h-1.722
			v-1.859h1.722V75.533z"/>
		<path d="M81.569,90.551v-1.395h3.66v-0.573c0-3.248,1.558-6.44,5.269-6.851c0.688-2.158,2.321-3.854,4.783-3.854
			c2.561,0,4.719,1.608,4.719,4.206v8.462L81.569,90.551L81.569,90.551z M90.201,83.178c-2.351,0.383-3.494,2.76-3.494,5.406v0.574
			h3.41v-4.752C90.117,83.997,90.146,83.587,90.201,83.178z M91.539,89.156h2.813V85.66c0-1.663-1.201-2.483-2.705-2.512
			c-0.08,0.41-0.104,0.815-0.104,1.258L91.539,89.156L91.539,89.156z M92.027,81.732c1.639,0.162,3.799,1.283,3.799,3.899v3.521
			h2.702v-6.903c0-1.718-1.147-2.978-3.247-2.978C93.748,79.273,92.629,80.256,92.027,81.732z"/>
	</g>
</g>
</svg>
