<?xml version="1.0" encoding="utf-8"?>
<!-- Generator: Adobe Illustrator 16.0.3, SVG Export Plug-In . SVG Version: 6.00 Build 0)  -->

<svg version="1.1" id="Layer_1" xmlns="http://www.w3.org/2000/svg" xmlns:xlink="http://www.w3.org/1999/xlink" x="0px" y="0px"
	 width="136.402px" height="100px" viewBox="0 0 136.402 100" enable-background="new 0 0 136.402 100" xml:space="preserve">
<g>
	<g>
		<path fill-rule="evenodd" clip-rule="evenodd" d="M99.139,94.62c-0.186-0.085-0.38-0.249-0.553-0.229
			c-0.208,0.023-0.587-0.273-0.628,0.229c0.002,1.562,0.005,3.119,0.007,4.678c-0.099,0.173-0.197,0.344-0.296,0.521
			c0.677,0,1.317,0,1.924,0c-0.178-0.2-0.319-0.36-0.46-0.519C99.135,97.742,99.137,96.182,99.139,94.62z M34.776,94.62
			c0.001,1.562,0.003,3.119,0.006,4.678c-0.167,0.18-0.332,0.354-0.506,0.541c0.731,0,1.45,0,2.165,0
			c-0.19-0.206-0.341-0.373-0.49-0.538c0.002-1.559,0.004-3.119,0.006-4.681c-0.186-0.085-0.381-0.249-0.555-0.229
			C35.196,94.415,34.816,94.118,34.776,94.62z M67.7,94.575c-0.002,1.618-0.002,3.24-0.002,4.857
			c-0.154,0.124-0.308,0.249-0.608,0.489c1.148,0,2.116,0.002,3.084,0c0.893-0.002,0.963-0.085,0.92-1.053
			c-0.099,0.086-0.184,0.225-0.292,0.243c-0.539,0.095-1.094,0.241-1.622,0.182c-0.153-0.021-0.324-0.655-0.337-1.012
			c-0.039-1.285-0.015-2.573-0.015-3.914c-0.265,0-0.549-0.018-0.829,0.01C67.894,94.389,67.797,94.506,67.7,94.575z M80.759,98.251
			c0-1.221,0-2.445-0.001-3.666c-0.008-0.067-0.02-0.191-0.031-0.191c-0.424-0.012-0.85-0.009-1.245-0.009
			c0.053,0.316,0.124,0.548,0.126,0.778c0.012,0.903-0.09,1.819,0.038,2.705c0.083,0.575,0.368,1.226,0.778,1.623
			c0.686,0.662,1.625,0.527,2.469,0.268c1-0.306,1.343-1.129,1.423-2.09c0.032-0.393,0.017-0.791,0.017-1.187
			c0.002-0.69,0.002-1.38,0.002-2.104c-0.191,0-0.455-0.01-0.714,0.016c-0.032,0.004-0.042,0.209-0.063,0.321
			c-0.002,1.132-0.002,2.264-0.002,3.396c-0.193,0.924-0.734,1.435-1.495,1.406C81.312,99.493,80.852,99.047,80.759,98.251z
			 M45.485,94.611c0.002,1.565,0.002,3.131,0.004,4.696c-0.162,0.17-0.325,0.337-0.572,0.599c0.884,0,1.715,0.05,2.535-0.021
			c0.396-0.035,0.803-0.241,1.149-0.459c0.717-0.454,0.861-1.46,0.31-2.065c-0.259-0.284-0.593-0.498-0.922-0.768
			c0.141-0.163,0.361-0.307,0.408-0.49c0.1-0.398,0.25-0.875,0.112-1.213c-0.104-0.261-0.602-0.454-0.951-0.499
			c-0.606-0.08-1.23-0.029-1.845-0.01C45.635,94.385,45.563,94.531,45.485,94.611z M42.581,95.113
			c-0.005,0.259,0.004,0.521-0.014,0.781c-0.044,0.731-0.098,1.458-0.149,2.188c-1.335-1.312-2.67-2.625-4.138-4.069
			c-0.098,2.072,0.023,3.971-0.404,5.844c0.447,0,0.951,0,1.348,0c-0.133-0.336-0.306-0.639-0.364-0.962
			c-0.083-0.472-0.095-0.958-0.115-1.44c-0.019-0.442-0.004-0.888-0.004-1.511c1.497,1.438,2.838,2.727,4.177,4.017
			c0.099-0.045,0.192-0.094,0.289-0.137c0-1.802,0-3.604,0-5.397c-0.148,0-0.437,0-0.701,0
			C42.536,94.689,42.559,94.903,42.581,95.113z M73.623,99.303c0.004-0.522,0.017-1.043,0.013-1.565
			c-0.004-0.411,0.186-0.593,0.594-0.591c0.718,0.006,1.433-0.002,2.151-0.005c0.008,0.887,0.36,1.812-0.364,2.702
			c0.695,0,1.303,0,1.939,0c-0.139-0.158-0.254-0.289-0.368-0.42c-0.002-1.615-0.002-3.233-0.004-4.852
			c-0.013-0.064-0.025-0.181-0.04-0.184c-0.404-0.008-0.81-0.007-1.154-0.007c0,0.788,0,1.477,0,2.249
			c-0.894,0-1.721,0.016-2.551-0.017c-0.117-0.005-0.314-0.233-0.32-0.366c-0.034-0.614-0.015-1.23-0.015-1.875
			c-0.265,0-0.594-0.014-0.921,0.016c-0.053,0.008-0.087,0.214-0.13,0.326c0,1.446,0,2.89,0,4.334
			c-0.092,0.249-0.186,0.497-0.289,0.771c0.642,0,1.295,0,1.914,0C73.903,99.617,73.762,99.459,73.623,99.303z M15.731,94.492
			c0.227-0.002,0.452-0.002,0.678-0.005c0.596,1.798,1.193,3.6,1.79,5.4c0.09-0.002,0.181-0.005,0.271-0.008
			c0.516-1.226,1.032-2.452,1.547-3.676c0.06,0.005,0.119,0.007,0.178,0.012c0.538,1.233,1.076,2.466,1.614,3.699
			c0.075-0.021,0.148-0.044,0.223-0.064c0.624-1.813,1.247-3.628,1.873-5.443c-0.227,0-0.461,0-0.666,0
			c-0.367,1.24-0.722,2.435-1.135,3.833c-0.614-1.439-1.151-2.701-1.689-3.961c-0.069,0.002-0.138,0.007-0.207,0.009
			c-0.496,1.256-0.99,2.51-1.484,3.765c-0.053-0.001-0.104-0.001-0.156-0.001c-0.334-1.099-0.668-2.193-1.002-3.292
			c0.068-0.159,0.138-0.323,0.198-0.46c-1.089,0-2.141,0-3.036,0c0.051,0.277,0.093,0.505,0.135,0.729
			c-0.3,1.006-0.601,2.01-0.958,3.207c-0.614-1.44-1.149-2.698-1.686-3.956c-0.072,0.009-0.144,0.018-0.215,0.024
			c-0.494,1.254-0.987,2.506-1.48,3.757c-0.051-0.005-0.104-0.012-0.156-0.019c-0.37-1.221-0.74-2.44-1.1-3.63
			c-0.395,0-0.732,0-1.101,0c0.627,1.858,1.239,3.67,1.85,5.479c0.088-0.009,0.175-0.019,0.264-0.027
			c0.516-1.224,1.033-2.45,1.549-3.674c0.06,0.014,0.119,0.027,0.18,0.037c0.533,1.229,1.064,2.456,1.596,3.683
			c0.066-0.016,0.131-0.032,0.197-0.049c0.117-0.3,0.242-0.598,0.35-0.904C14.681,97.472,15.206,95.979,15.731,94.492z
			 M76.401,66.263c-0.042,0.03-0.087,0.06-0.132,0.088c-1.782-0.003-3.565,0.027-5.349-0.017c-1.001-0.022-2.005-0.14-3.005-0.259
			c-0.472-0.058-0.826-0.261-0.904-0.849c-0.239-1.83-0.504-3.663-0.835-5.479c-0.083-0.458,0.013-0.608,0.374-0.809
			c0.953-0.525,1.925-1.036,2.803-1.672c1.36-0.987,2.274-2.81,1.365-4.605c-0.273-0.538-0.797-0.651-1.202-0.202
			c-0.334,0.367-0.626,0.773-0.917,1.176c-0.47,0.656-0.288,1.37,0.477,1.699c0.48,0.206,0.41,0.453,0.12,0.727
			c-0.378,0.359-0.762,0.721-1.184,1.024c-0.681,0.488-1.397,0.935-2.168,1.446c-0.1-0.34-0.167-0.541-0.217-0.746
			c-0.32-1.267-0.819-2.521-0.077-3.823c0.126-0.223,0.121-0.637-0.005-0.862c-0.54-0.968-1.138-1.906-1.738-2.839
			c-0.087-0.138-0.316-0.293-0.442-0.267c-0.152,0.032-0.333,0.229-0.38,0.394c-0.235,0.825-0.242,1.658,0.025,2.487
			c0.601,1.864,1.162,3.74,1.812,5.584c0.171,0.487,0.007,0.636-0.348,0.779c-0.552,0.22-1.111,0.428-1.668,0.637
			c0.017,0.077,0.032,0.148,0.049,0.227c0.765-0.163,1.531-0.32,2.416-0.505c0.372,1.515,0.791,3.003,1.089,4.514
			c0.252,1.279,0.169,1.332-1.153,1.457c-1.066,0.101-2.136,0.177-3.288,0.271c-0.165,0.762-0.331,1.531-0.496,2.301
			c2.271,0.19,4.588-0.288,6.797,0.549c-0.149,0.164-0.292,0.261-0.451,0.299c-2.647,0.61-5.103,1.701-7.416,3.088
			c-2.04,1.223-3.955,2.634-5.328,4.632c-0.658,0.956-1.249,1.96-1.873,2.938c-0.758,1.197-1.561,1.378-2.522,0.074
			c-0.263-0.354-0.325-1.046-0.177-1.48c0.301-0.894,0.79-1.728,1.234-2.569c0.495-0.944,1.051-1.862,1.053-2.978
			c1.863-1.047,3.059-2.381,2.831-4.776c-0.194-2.008-1.135-3.467-2.553-4.92c-0.144,0.818-0.25,1.51-0.391,2.195
			c-0.128,0.618-0.032,0.97,0.568,1.448c1.538,1.224,1.357,2.494-0.041,3.429c-1.279,0.854-2.753,1.532-4.238,1.946
			c-2.593,0.729-5.285,0.659-7.963,0.434c-2.008-0.17-3.623-1.03-4.872-2.602c-0.341-0.43-0.66-0.881-1.049-1.263
			c-1.281-1.251-2.993-1.197-4.029,0.188c-0.566,0.756-1.049,1.595-1.438,2.455c-0.498,1.103-0.821,2.278-1.3,3.389
			c-0.409,0.951-1.241,1.005-1.864,0.146c-1.01-1.393-0.938-2.999-0.829-4.599c0.058-0.853,0.163-1.705,0.246-2.56
			c-0.062-0.016-0.123-0.031-0.184-0.05c-0.074,0.164-0.179,0.32-0.219,0.492c-0.28,1.208-0.562,2.417-0.813,3.633
			c-0.438,2.116,0.083,3.972,1.562,5.558c0.478,0.514,1.033,0.859,1.736,0.688c0.647-0.155,0.778-0.762,0.922-1.322
			c0.494-1.889,1.168-3.694,2.374-5.263c0.746-0.97,1.652-1.313,2.616-0.833c0.466,0.229,0.833,0.666,1.234,1.021
			c0.923,0.821,1.747,1.804,2.782,2.438c1.411,0.865,3.097,1.002,4.732,1.091c0.844,0.045,1.705-0.037,2.549-0.15
			c1.254-0.163,2.516-0.323,3.74-0.634c1.152-0.297,2.256-0.782,3.379-1.186c-0.762,1.271-1.535,2.537-2.283,3.816
			c-0.28,0.477-0.656,0.962-0.725,1.48c-0.211,1.576,0.297,3.004,1.275,4.239c0.588,0.738,1.293,0.914,2.068,0.208
			c0.211-0.189,0.418-0.399,0.562-0.641c0.476-0.81,0.891-1.652,1.384-2.448c2.501-4.048,6.115-6.757,10.582-8.173
			c3.843-1.22,7.798-2.078,11.702-3.101c0.152,1.192,0.304,2.384,0.456,3.575c-1.186,0.924-2.44,1.774-3.535,2.796
			c-1.402,1.307-2.506,2.874-3.371,4.6c-0.294,0.585-0.679,1.175-1.433,1.167c-0.677-0.01-1.444-0.919-1.508-1.607
			c-0.083-0.889,0.344-1.604,0.739-2.335c0.294-0.543,0.594-1.082,0.893-1.625c-0.073-0.053-0.143-0.104-0.214-0.162
			c-0.638,0.74-1.318,1.45-1.899,2.232c-0.314,0.42-0.613,0.951-0.654,1.45c-0.119,1.504,0.363,2.871,1.323,4.036
			c0.696,0.846,1.307,0.958,2.11,0.133c0.451-0.461,0.85-1.013,1.134-1.593c0.998-2.026,2.29-3.825,3.965-5.332
			c0.784-0.707,1.688-1.282,2.535-1.92c0,0.72,0,1.441,0,2.162c0.487-0.806,0.572-1.673,0.515-2.563
			c0.396-0.221,0.792-0.442,1.19-0.658c1.908-1.037,3.941-1.732,6.056-2.191c1.13-0.245,2.277-0.409,3.417-0.609
			c0.081,0.768,0.096,1.49,0.245,2.183c0.325,1.521,1.474,2.837,3.245,2.881c1.076,0.022,1.954-0.42,2.764-1.021
			c0.535-0.394,0.987-0.908,1.518-1.404c0.173,0.364,0.322,0.709,0.498,1.048c0.82,1.56,2.663,2.52,4.551,1.411
			c0.874-0.514,1.585-1.313,2.329-2.021c0.252-0.24,0.437-0.287,0.72-0.128c1.104,0.623,2.298,0.827,3.551,0.765
			c0.76-0.038,1.704-0.68,1.746-1.409c0.047-0.823,0.053-1.749-0.27-2.472c-0.93-2.082-1.277-2.946-3.763-2.725
			c-0.58,0.05-0.989,0.294-1.289,0.743c-0.18,0.268-0.295,0.577-0.439,0.869c-0.682,1.359-1.414,2.689-2.528,3.756
			c-1.384,1.325-3.378,0.758-3.849-1.098c-0.167-0.665-0.229-1.357-0.34-2.049c-0.032,0.024-0.082,0.055-0.122,0.096
			c-1.051,0.999-2.02,2.093-3.385,2.707c-0.861,0.388-1.725,0.637-2.639,0.269c-1.258-0.504-1.414-2.35-0.682-3.452
			c0.295-0.445,0.699-0.813,1.115-1.29c-4.712,0.749-9.338,1.521-13.484,3.951c-0.01-0.349-0.002-0.703-0.036-1.051
			c-0.084-0.882-0.184-1.759-0.278-2.639c0.233-0.484,0.466-0.966,0.696-1.449c-0.374-0.249-1.037,0.009-1.164-0.669
			c-0.184-0.78-0.367-1.557-0.549-2.335c-0.077-0.328,0.04-0.498,0.391-0.474c0.745-0.208,1.486-0.443,2.238-0.623
			c1.962-0.474,3.733-1.34,5.285-2.628c1.101-0.91,2.077-2.618,1.244-4.306c-0.354-0.718-0.967-0.846-1.521-0.231
			c-0.245,0.271-0.431,0.592-0.638,0.895c-0.493,0.712-0.364,1.357,0.395,1.79c0.507,0.288,0.489,0.596,0.131,0.967
			c-0.164,0.171-0.339,0.338-0.529,0.478c-2.06,1.511-4.298,2.67-6.73,3.451c-0.53,0.179-0.457-0.314-0.511-0.531
			c-0.382-1.538-0.698-3.097-1.098-4.631c-0.139-0.533-0.107-0.973,0.169-1.431c0.466-0.782,0.363-1.499-0.156-2.244
			c-0.442-0.638-0.794-1.344-1.138-2.044c-0.149-0.307-0.158-0.68-0.271-1.008c-0.04-0.116-0.186-0.233-0.31-0.274
			c-0.064-0.021-0.239,0.104-0.271,0.192c-0.392,1.132-0.84,2.26-0.434,3.493c0.636,1.934,1.292,3.863,1.91,5.806
			c0.41,1.28,0.79,2.573,1.134,3.871C76.163,64.746,76.26,65.512,76.401,66.263z M36.905,31.214c1.399-0.004,2.8-0.008,4.199-0.012
			c0.875-0.544,1.961-0.791,2.685-1.86c-0.95,0-1.736,0-2.521,0c-2.083,0-4.165-0.001-6.248-0.001
			c-7.017-0.208-13.884-1.209-20.446-3.899c0.751,0.497,1.517,0.917,2.328,1.225c2.273,0.862,4.53,1.804,6.858,2.484
			C28.044,30.399,32.432,31.114,36.905,31.214z M37.798,35.808c1.154,0,2.305,0,3.458,0.002c4.404,0.24,8.679,0.926,12.361,3.735
			c0-0.136,0.015-0.203-0.004-0.259c-0.064-0.187-0.127-0.374-0.216-0.551c-1.501-3.12-4.263-4.425-7.452-4.843
			c-2.145-0.283-4.347-0.148-6.524-0.193c-0.74-0.016-1.504-0.127-2.221,0.004c-1.75,0.319-3.501,0.681-5.21,1.165
			c-1.755,0.496-3.516,0.588-5.262,0.217c-3.087-0.659-5.63-2.284-7.67-4.693c-0.391-0.461-0.791-0.917-1.187-1.374
			c-0.068,0.041-0.137,0.081-0.205,0.122c0.299,0.556,0.574,1.124,0.899,1.661c1.314,2.184,3.025,4,5.279,5.203
			c2.533,1.353,5.237,1.549,8.037,0.936C33.841,36.51,35.825,36.182,37.798,35.808z M14.587,9.85
			c0.016,0.121-0.002,0.228,0.043,0.279c1.008,1.116,1.91,2.364,3.058,3.312c3.176,2.615,6.863,4.229,10.86,5.174
			c2.492,0.59,5.013,1.109,7.438,1.914c2.912,0.967,5.693,2.311,8.228,4.064c1.98,1.368,3.758,2.993,5.287,4.864
			c1.667,2.039,3.169,4.184,3.955,6.734c0.242,0.779,1.76,1.532,2.47,1.309c0.8-0.252,1.21-0.968,0.867-1.713
			c-0.504-1.095-0.998-2.201-1.597-3.244c-2.865-4.989-6.656-9.019-11.966-11.467c-4.175-1.926-8.496-3.371-13.034-4.172
			c-3.902-0.689-7.527-2.18-10.965-4.107C17.654,11.912,16.169,10.861,14.587,9.85z M17.596,71.019
			c3.595-16.585,13.631-25.813,30.673-27.273c-0.107-0.148-0.201-0.354-0.359-0.486c-1.316-1.083-2.903-1.604-4.49-2.116
			c-0.08-0.026-0.175-0.011-0.263,0.004c-2.993,0.479-5.926,1.188-8.65,2.551c-3.59,1.798-6.691,4.196-9.242,7.361
			c-3.052,3.782-4.967,8.091-6.305,12.692c-0.473,1.623-0.751,3.303-1.077,4.967C17.736,69.475,17.688,70.251,17.596,71.019z
			 M34.761,0c0.085,0.047,0.167,0.103,0.257,0.14c2.241,0.977,4.337,2.158,5.986,4.022c1.021,1.155,1.724,2.469,2.1,3.957
			c0.669,2.649,1.173,5.354,2.034,7.938c0.927,2.789,2.339,5.354,4.703,7.274c1.26,1.022,2.68,1.626,4.252,1.87
			c0.927,0.145,1.587-0.234,1.754-0.956c0.103-0.448,0.323-0.989-0.333-1.307c-2.285-1.104-4.22-2.68-5.944-4.518
			c-1.672-1.785-2.725-3.92-3.306-6.277c-0.561-2.274-1.035-4.565-2.252-6.622C41.929,2.005,38.849,0.175,34.761,0z M4.761,8.042
			c-0.019,0.057-0.039,0.114-0.06,0.171c0.162,0.104,0.324,0.21,0.486,0.315c1.554,0.997,3.157,1.94,4.386,3.347
			c1.011,1.157,1.931,2.391,2.911,3.573c1.348,1.625,2.957,2.938,4.838,3.9c1.11,0.568,2.312,0.738,3.529,0.561
			c0.542-0.08,1.05-0.381,1.64-0.608c-0.176-0.18-0.201-0.229-0.236-0.238c-3.527-1.021-6.393-3.046-8.859-5.728
			c-1.509-1.64-3.229-3.043-5.191-4.13C7.12,8.604,5.995,8.16,4.761,8.042z M9.436,15.664c0.015-0.05-0.024,0.009-0.013,0.06
			c0.065,0.3,0.123,0.603,0.217,0.895c0.883,2.757,2.892,4.506,5.324,5.84c2.373,1.3,4.936,2.077,7.601,2.511
			c1.514,0.248,3.035,0.602,4.557,0.622c1.945,0.025,3.9-0.188,5.838-0.401c0.974-0.108,1.84-0.599,2.566-1.311
			c-0.236-0.063-0.443-0.039-0.652-0.019c-1.639,0.151-3.279,0.437-4.915,0.417c-1.86-0.021-3.713-0.332-5.572-0.482
			c-2.535-0.208-4.99-0.748-7.391-1.584c-2.121-0.738-4.03-1.803-5.478-3.529C10.723,17.736,10.103,16.645,9.436,15.664z
			 M36.133,59.573c0.415-0.206,0.74-0.374,1.073-0.527c1.681-0.759,3.364-1.511,5.045-2.271c1.879-0.849,3.757-1.705,5.641-2.549
			c1.939-0.868,3.872-1.763,5.835-2.577c0.794-0.328,0.639-0.924,0.744-1.616c-6.609,3.068-13.17,5.945-19.667,9.041
			c0.581,0.816,1.327,1.131,1.996,0.91C36.59,59.855,36.418,59.748,36.133,59.573z M44.618,19.515
			c0.165-1.536-0.149-2.206-1.138-2.654c-1.796-0.815-3.39-1.947-4.827-3.281c-2.062-1.911-3.596-4.195-4.655-6.799
			c-0.059-0.144-0.154-0.272-0.232-0.409c-0.062,0.03-0.121,0.06-0.182,0.088c0.492,2.396,1.399,4.627,2.82,6.644
			C38.478,16.047,41.241,18.11,44.618,19.515z M57.857,99.839c-0.141-0.309-0.297-0.547-0.355-0.81
			c-0.062-0.271-0.062-0.574-0.021-0.854c0.034-0.223,0.171-0.429,0.263-0.645c0.254,0.123,0.56,0.188,0.75,0.377
			c0.274,0.27,0.462,0.633,0.7,0.948c0.756,1.011,2.126,1.39,3.153,0.985c-0.046-0.307-0.17-0.577-0.11-0.801
			c0.258-0.975,0.277-0.969,1.279-0.969c0.22,0,0.45-0.04,0.658,0.013c0.178,0.045,0.406,0.159,0.476,0.309
			c0.173,0.367,0.265,0.772,0.399,1.157c0.036,0.11,0.099,0.294,0.156,0.296c0.536,0.023,1.074,0.016,1.563,0.016
			c-0.292-0.341-0.606-0.588-0.767-0.911c-0.368-0.747-0.658-1.531-0.989-2.294c-0.368-0.855-0.741-1.708-1.113-2.563
			c-0.068-0.001-0.137-0.004-0.203-0.004c-0.256,0.585-0.51,1.169-0.767,1.754c-0.474,1.074-0.946,2.151-1.422,3.225
			c-0.205,0.46-0.526,0.45-0.82,0.124c-0.57-0.631-1.106-1.293-1.662-1.949c0.25-0.284,0.444-0.515,0.649-0.737
			c0.711-0.782,0.308-2.129-0.813-2.162c-0.823-0.022-1.646-0.005-2.323-0.005c-0.297,1.878,0.254,3.68-0.306,5.501
			C56.749,99.839,57.359,99.839,57.857,99.839z M78.685,64.92c0.002,0.068,0.004,0.137,0.007,0.209
			c0.089,0.051,0.179,0.151,0.267,0.146c1.354-0.033,2.749,0.11,4.052-0.173c1.69-0.37,3.339-0.996,4.942-1.66
			c2.331-0.965,4.04-2.636,5.135-5.194c-0.5,0.258-0.873,0.387-1.177,0.611c-1.226,0.905-2.381,1.913-3.652,2.752
			c-2.163,1.425-4.624,2.156-7.119,2.763C80.324,64.569,79.503,64.736,78.685,64.92z M107.001,99.835c0.572,0,1.293,0,2.037,0
			c-0.229-0.214-0.552-0.376-0.552-0.537c-0.003-0.773-0.095-1.619,0.182-2.306c0.371-0.935,1.046-1.75,1.576-2.595
			c-0.291-0.029-0.653-0.068-0.971-0.101c0.047,1.012-0.735,1.63-1.07,2.452c-0.065,0.008-0.132,0.019-0.198,0.028
			c-0.438-0.809-0.875-1.623-1.379-2.559c-0.666,0.038-1.533,0.083-2.217,0.119c-0.508,0.925-0.928,1.688-1.425,2.589
			c-0.537-0.951-0.972-1.729-1.411-2.512c-0.381,0-0.808,0-1.239,0c1.042,1.688,2.816,3.113,1.59,5.426c0.64,0,1.253,0,1.78,0
			c-0.102-0.144-0.303-0.298-0.301-0.446c0.017-0.823-0.066-1.696,0.172-2.457c0.238-0.749,0.823-1.391,1.253-2.079
			c0.296-0.474,0.663-0.443,0.93-0.034c0.828,1.266,1.936,2.439,1.575,4.153C107.272,99.26,107.126,99.522,107.001,99.835z
			 M27.478,99.83c-0.185-0.195-0.448-0.351-0.436-0.479c0.081-0.946,0.217-1.887,0.338-2.827c0.051-0.002,0.102-0.004,0.153-0.006
			c0.569,1.095,1.137,2.192,1.706,3.288c0.075-0.013,0.148-0.029,0.221-0.046c0.569-1.157,1.138-2.316,1.706-3.476
			c0.05,0.018,0.099,0.035,0.148,0.054c0.138,1.121,0.274,2.241,0.417,3.403c0.555,0.052,1.112,0.097,1.583,0.138
			c-0.243-0.337-0.563-0.598-0.628-0.909c-0.198-0.942-0.292-1.904-0.436-2.857c-0.101-0.661-0.219-1.318-0.329-1.976
			c-0.075-0.021-0.15-0.04-0.225-0.059c-0.679,1.375-1.359,2.753-2.112,4.277c-0.202-0.371-0.311-0.555-0.404-0.747
			c-0.482-0.983-0.952-1.976-1.445-2.957c-0.105-0.208-0.286-0.378-0.432-0.568c-0.054,0.037-0.107,0.074-0.159,0.112
			c0,0.107,0.015,0.216-0.002,0.321c-0.223,1.32-0.439,2.643-0.686,3.958c-0.086,0.468-0.253,0.919-0.376,1.354
			C26.428,99.83,26.95,99.83,27.478,99.83z M0,94.394c0.637,1.887,1.25,3.699,1.863,5.513c0.082,0.009,0.164,0.018,0.246,0.024
			c0.528-1.27,1.056-2.541,1.644-3.955c0.605,1.402,1.148,2.656,1.689,3.91c0.078-0.006,0.157-0.013,0.235-0.017
			c0.625-1.816,1.25-3.634,1.894-5.501c-0.291,0.013-0.524,0.023-0.665,0.029c-0.382,1.257-0.739,2.435-1.096,3.613
			c-0.054,0-0.107,0-0.16-0.003c-0.529-1.251-1.058-2.501-1.587-3.749c-0.063,0.004-0.127,0.007-0.19,0.009
			c-0.499,1.254-0.998,2.505-1.497,3.759c-0.065-0.014-0.129-0.024-0.192-0.037c-0.351-1.201-0.701-2.399-1.05-3.596
			C0.759,94.394,0.387,94.394,0,94.394z M28.392,63.746c0.41-0.7,0.791-1.359,1.177-2.021c0.656,0.354,1.3,0.726,1.97,1.044
			c0.139,0.063,0.469-0.008,0.55-0.124c0.392-0.571,0.728-1.18,1.099-1.795c-0.771-0.516-1.526-1.018-2.301-1.53
			c-0.462,0.701-0.901,1.363-1.385,2.098c-0.578-0.336-1.135-0.661-1.696-0.984c-0.254-0.144-0.503-0.303-0.694,0.101
			c-0.322,0.679-0.665,1.351-1.011,2.042C26.865,62.968,27.583,63.332,28.392,63.746z M45.889,78.101
			c-0.733-0.493-1.431-0.962-2.192-1.471c-0.504,0.688-0.984,1.347-1.488,2.037c-0.712-0.406-1.427-0.81-2.193-1.242
			c-0.404,0.809-0.794,1.587-1.205,2.415c0.79,0.403,1.521,0.775,2.271,1.155c0.405-0.68,0.794-1.326,1.189-1.989
			c0.78,0.417,1.53,0.816,2.307,1.23C45.031,79.496,45.449,78.816,45.889,78.101z M33.628,4.157
			c-0.041,0.017-0.082,0.036-0.122,0.053c0.017,0.117,0.013,0.241,0.055,0.35c0.705,1.851,1.501,3.647,2.736,5.228
			c1.408,1.799,3.142,3.112,5.338,3.776c0.186,0.057,0.573-0.018,0.62-0.132c0.168-0.401-0.31-1.294-0.72-1.465
			c-3.151-1.312-5.447-3.563-7.138-6.481C34.139,5.043,33.884,4.6,33.628,4.157z M121.209,99.901
			c1.861,0.146,3.166-1.431,3.203-2.769c0.061-2.185-1.322-2.959-3.023-2.984c-1.982-0.025-3.034,0.965-3.188,2.803
			C118.057,98.664,119.376,99.873,121.209,99.901z M59.681,78.419c-0.397,0.839-0.779,1.632-1.151,2.432
			c-0.25,0.539-0.032,0.91,0.449,1.184c0.51,0.291,1.044,0.242,1.469-0.081c1.114-0.841,2.187-1.739,3.264-2.629
			c0.132-0.109,0.19-0.313,0.282-0.467c-0.043-0.041-0.086-0.085-0.128-0.126c-0.259,0.199-0.5,0.424-0.773,0.595
			c-0.789,0.501-1.575,1.002-2.395,1.439c-0.179,0.098-0.587,0.016-0.728-0.135c-0.156-0.165-0.198-0.518-0.161-0.769
			c0.037-0.238,0.209-0.476,0.374-0.676c0.528-0.634,1.107-1.229,1.616-1.879c0.581-0.74,0.436-1.035-0.509-1.166
			c-0.853-0.115-1.546,0.266-1.994,0.963C58.848,77.805,59.41,78.104,59.681,78.419z M88.723,97.29
			c0.319-0.361,0.522-0.588,0.719-0.818c0.707-0.833,0.2-2.114-0.814-2.121c-0.837-0.008-1.675-0.003-2.493-0.003
			c0.051,0.438,0.115,0.759,0.118,1.082c0.01,0.933,0.02,1.867-0.017,2.801c-0.021,0.516-0.133,1.029-0.212,1.597
			c0.477,0,1.098,0,1.585,0c-0.137-0.284-0.308-0.52-0.364-0.78c-0.063-0.294-0.06-0.617-0.023-0.918
			c0.026-0.206,0.167-0.568,0.244-0.563c0.251,0.01,0.555,0.097,0.727,0.267c0.289,0.289,0.469,0.681,0.732,1.002
			c0.718,0.872,1.345,1.321,2.214,1.007C90.367,99.024,89.552,98.168,88.723,97.29z M33.519,1.821
			c0.946,4.33,4.488,7.481,8.639,7.982c-0.004-0.907-0.299-1.484-0.878-1.629c-3.11-0.779-5.392-2.667-7.11-5.307
			C33.945,2.522,33.735,2.169,33.519,1.821z M130.997,99.74c-1.253-0.514-1.781-1.636-2.557-2.516
			c0.255-0.294,0.458-0.521,0.654-0.753c0.71-0.826,0.206-2.112-0.814-2.121c-0.837-0.01-1.673-0.003-2.42-0.003
			c0.002,1.893,0.294,3.665-0.25,5.484c0.538,0,1.162,0,1.654,0c-0.139-0.307-0.302-0.565-0.369-0.845
			c-0.061-0.272-0.058-0.573-0.019-0.855c0.027-0.207,0.168-0.571,0.242-0.566c0.252,0.012,0.556,0.097,0.729,0.267
			c0.287,0.29,0.476,0.681,0.732,1.006C129.314,99.768,130.095,100.176,130.997,99.74z M135.229,97.174
			c0,0.59-0.025,1.151,0.009,1.707c0.03,0.512-0.214,0.637-0.669,0.646c-1.731,0.034-2.978-1.814-2.427-3.633
			c0.264-0.882,0.767-1.233,1.674-1.27c0.943-0.037,1.822,0.027,2.417,1.126c0-0.581,0-0.959,0-1.339
			c-1.215-0.285-2.377-0.415-3.553-0.03c-1.122,0.364-1.603,1.259-1.78,2.299c-0.17,0.981,0.18,1.878,0.964,2.514
			c1.057,0.858,2.338,0.762,3.576,0.667c0.575-0.045,0.965-0.361,0.869-1.093c-0.067-0.516,0.054-1.061,0.094-1.595
			C136.011,97.174,135.575,97.174,135.229,97.174z M92.101,94.297c-0.025,1.935,0.348,3.747-0.309,5.557c0.544,0,1.141,0,1.817,0
			c-0.818-0.688-0.482-1.507-0.519-2.249c0.581-0.214,0.908-0.01,1.177,0.408c0.282,0.438,0.596,0.856,0.915,1.274
			c0.411,0.538,1.236,0.747,1.807,0.545c-0.767-0.837-1.563-1.707-2.42-2.643c0.271-0.227,0.46-0.351,0.607-0.514
			c0.931-1.02,0.596-2.145-0.77-2.358C93.639,94.196,92.838,94.297,92.101,94.297z M43.96,58.769
			c-0.062-0.006-0.122-0.012-0.182-0.017c-0.61,1.064-0.846,2.241-0.874,3.452c-0.008,0.362,0.235,0.855,0.525,1.082
			c0.674,0.536,1.444,0.366,1.882-0.395c0.363-0.628,0.737-0.799,1.401-0.439c0.243,0.13,0.719,0.162,0.903,0.009
			c0.601-0.498,0.872-1.194,0.764-1.987c-0.09-0.657-0.49-1.111-1.088-1.525c-0.107,0.665-0.465,1.195-0.077,1.773
			c0.295,0.436,0.064,0.676-0.357,0.902c-0.31-0.446-0.604-0.872-0.901-1.299c-0.212,0.438-0.196,0.816-0.353,1.102
			c-0.16,0.284-0.47,0.619-0.752,0.657c-0.205,0.03-0.628-0.354-0.681-0.61c-0.147-0.709-0.154-1.449-0.212-2.181
			C43.947,59.121,43.96,58.944,43.96,58.769z M55.79,54.391c-0.147,0.128-0.215,0.158-0.229,0.203
			c-0.28,0.965-0.604,1.921-0.813,2.902c-0.168,0.786,0.24,1.448,0.885,1.692c0.763,0.289,0.98,0.194,1.572-0.676
			c0.527-0.774,0.573-0.826,1.393-0.342c0.595,0.354,0.931,0.103,1.228-0.338c0.754-1.115,0.523-2.293-0.694-3.183
			c-0.068,0.512-0.145,0.967-0.184,1.419c-0.032,0.374,0.1,1.011-0.047,1.08c-0.534,0.243-0.539-0.357-0.737-0.655
			c-0.085-0.126-0.235-0.212-0.354-0.313c-0.099,0.129-0.233,0.247-0.287,0.396c-0.068,0.198-0.009,0.468-0.122,0.624
			c-0.188,0.259-0.479,0.641-0.709,0.628c-0.256-0.017-0.578-0.366-0.716-0.648c-0.153-0.317-0.163-0.715-0.182-1.081
			C55.768,55.565,55.79,55.031,55.79,54.391z M97.574,53.284c-0.82,0.036-1.982,0.257-2.769,1.251
			c-0.285,0.363-0.447,0.923-0.435,1.39c0.01,0.587,0.509,0.896,1.074,1.027c1.505,0.363,2.902-0.318,3.661-1.784
			C99.765,53.896,99.392,53.282,97.574,53.284z M100.453,81.77c2.637,0.545,7.685-2.769,8.724-5.636
			c-0.212,0.015-0.467-0.052-0.582,0.044C106.07,78.314,103.377,80.198,100.453,81.77z M112.821,93.97
			c-0.727,1.667-1.354,3.149-2.021,4.609c-0.209,0.456-0.533,0.856-0.837,1.338c-0.084-0.103-0.054-0.039-0.031-0.042
			c0.451-0.034,0.904-0.074,1.354-0.116c-0.22-1.01,0.326-1.688,1.348-1.688c0.242,0,0.487-0.022,0.724,0.016
			c0.123,0.018,0.286,0.114,0.332,0.217c0.216,0.495,0.399,1.004,0.597,1.518c0.485,0,1.036,0,1.461,0
			c-0.262-0.364-0.582-0.687-0.756-1.072c-0.607-1.359-1.16-2.744-1.745-4.113C113.16,94.437,113.015,94.271,112.821,93.97z
			 M50.659,99.782c0.263-0.628,0.351-1.355,0.746-1.619c0.397-0.265,1.124-0.16,1.664-0.034c0.224,0.054,0.356,0.572,0.498,0.896
			c0.122,0.273,0.154,0.78,0.299,0.808c0.519,0.099,1.068,0.039,1.517,0.039c-0.299-0.409-0.619-0.729-0.792-1.113
			c-0.609-1.362-1.162-2.746-1.751-4.114c-0.087-0.207-0.254-0.376-0.438-0.64c-0.712,1.628-1.337,3.107-2.008,4.57
			c-0.208,0.453-0.527,0.858-0.801,1.295C49.922,99.841,50.396,99.803,50.659,99.782z M82.149,78.723
			c0.839,0.464,1.653,0.916,2.527,1.399c0.449-0.783,0.876-1.526,1.325-2.313c-0.685-0.316-1.305-0.57-1.893-0.889
			c-0.35-0.193-0.583-0.085-0.779,0.175C82.94,77.603,82.575,78.132,82.149,78.723z M99.47,62.813
			c-0.749-0.368-1.401-0.703-2.066-1.01c-0.129-0.061-0.396-0.059-0.462,0.026c-0.472,0.592-0.907,1.21-1.377,1.855
			c0.922,0.463,1.768,0.887,2.624,1.317C98.618,64.27,99.023,63.579,99.47,62.813z M77.848,56.069
			c1.211,0.525,1.064,1.764,1.397,2.829c0.596-1.4,0.132-3.688-0.918-4.461C78.167,54.981,78.017,55.497,77.848,56.069z
			 M24.518,98.517c-0.188,0.373-0.403,0.607-0.363,0.781c0.041,0.184,0.328,0.31,0.507,0.461c0.151-0.183,0.417-0.368,0.417-0.555
			C25.08,99.024,24.805,98.85,24.518,98.517z M117.478,99.233c-0.354-0.222-0.567-0.465-0.741-0.438
			c-0.18,0.028-0.449,0.313-0.443,0.481c0,0.165,0.29,0.438,0.469,0.452C116.941,99.737,117.135,99.486,117.478,99.233z
			 M64.489,78.181c-0.013-0.016-0.028-0.03-0.041-0.049c-0.015,0.014-0.03,0.03-0.045,0.043c0.013,0.016,0.025,0.04,0.041,0.043
			C64.458,78.22,64.475,78.195,64.489,78.181z"/>
		<path fill-rule="evenodd" clip-rule="evenodd" d="M78.388,66.492c-0.23,0.483-0.463,0.965-0.696,1.449
			c-0.301,0.176-0.6,0.351-0.899,0.524c-3.904,1.022-7.859,1.881-11.702,3.101c-4.467,1.416-8.081,4.125-10.582,8.173
			c-0.493,0.796-0.908,1.639-1.384,2.448c-0.144,0.241-0.351,0.451-0.562,0.641c-0.775,0.706-1.48,0.53-2.068-0.208
			c-0.978-1.235-1.486-2.663-1.275-4.239c0.068-0.519,0.444-1.004,0.725-1.48c0.748-1.279,1.521-2.545,2.283-3.816
			c0.171-0.13,0.342-0.262,0.513-0.393c-0.002,1.115-0.558,2.033-1.053,2.978c-0.445,0.842-0.934,1.676-1.234,2.569
			c-0.148,0.435-0.086,1.126,0.177,1.48c0.961,1.304,1.764,1.123,2.522-0.074c0.624-0.978,1.215-1.981,1.873-2.938
			c1.373-1.998,3.288-3.409,5.328-4.632c2.313-1.387,4.769-2.478,7.416-3.088c0.158-0.038,0.301-0.135,0.451-0.299
			c-2.208-0.837-4.526-0.358-6.797-0.549c0.165-0.77,0.331-1.539,0.496-2.301c1.152-0.094,2.222-0.17,3.288-0.271
			c1.322-0.125,1.405-0.178,1.153-1.457c-0.299-1.511-0.718-2.999-1.089-4.514c-0.884,0.185-1.651,0.342-2.416,0.505
			c-0.018-0.078-0.032-0.149-0.049-0.227c0.557-0.209,1.117-0.417,1.668-0.637c0.354-0.144,0.519-0.292,0.348-0.779
			c-0.649-1.844-1.211-3.72-1.812-5.584c-0.267-0.829-0.26-1.662-0.025-2.487c0.047-0.164,0.228-0.361,0.38-0.394
			c0.125-0.027,0.354,0.129,0.442,0.267c0.6,0.933,1.198,1.871,1.738,2.839c0.126,0.226,0.131,0.64,0.005,0.862
			c-0.742,1.303-0.243,2.557,0.077,3.823c0.051,0.205,0.117,0.406,0.217,0.746c0.771-0.512,1.487-0.958,2.168-1.446
			c0.421-0.304,0.805-0.665,1.184-1.024c0.291-0.273,0.36-0.521-0.12-0.727c-0.765-0.329-0.946-1.043-0.477-1.699
			c0.291-0.402,0.583-0.809,0.917-1.176c0.405-0.449,0.929-0.336,1.202,0.202c0.91,1.796-0.004,3.618-1.365,4.605
			c-0.878,0.636-1.85,1.146-2.803,1.672c-0.361,0.2-0.457,0.351-0.374,0.809c0.331,1.815,0.596,3.648,0.835,5.479
			c0.078,0.588,0.432,0.791,0.904,0.849c1,0.119,2.003,0.236,3.005,0.259c1.784,0.044,3.567,0.014,5.349,0.017
			C76.976,66.396,77.683,66.444,78.388,66.492z"/>
		<path fill-rule="evenodd" clip-rule="evenodd" d="M78.005,71.631c4.146-2.43,8.772-3.202,13.484-3.951
			c-0.416,0.477-0.82,0.845-1.115,1.29c-0.732,1.103-0.576,2.948,0.682,3.452c0.914,0.368,1.778,0.119,2.639-0.269
			c1.365-0.614,2.334-1.708,3.385-2.707c0.04-0.041,0.089-0.071,0.122-0.096c0.111,0.691,0.173,1.384,0.34,2.049
			c0.47,1.855,2.465,2.423,3.849,1.098c1.114-1.066,1.846-2.396,2.528-3.756c0.145-0.292,0.26-0.602,0.439-0.869
			c0.299-0.449,0.709-0.693,1.289-0.743c2.486-0.222,2.833,0.643,3.763,2.725c0.322,0.723,0.316,1.648,0.27,2.472
			c-0.042,0.729-0.986,1.371-1.746,1.409c-1.253,0.063-2.447-0.142-3.551-0.765c-0.283-0.159-0.468-0.112-0.72,0.128
			c-0.744,0.709-1.455,1.508-2.329,2.021c-1.889,1.108-3.731,0.148-4.551-1.411c-0.176-0.339-0.325-0.684-0.498-1.048
			c-0.531,0.496-0.983,1.011-1.518,1.404c-0.81,0.601-1.688,1.043-2.764,1.021c-1.771-0.044-2.92-1.359-3.245-2.881
			c-0.149-0.692-0.164-1.415-0.245-2.183c-1.14,0.2-2.287,0.364-3.417,0.609c-2.115,0.459-4.148,1.154-6.056,2.191
			c-0.397,0.216-0.794,0.438-1.19,0.658c-0.173,0.133-0.344,0.266-0.515,0.4c-0.848,0.638-1.751,1.213-2.535,1.92
			c-1.675,1.507-2.967,3.306-3.965,5.332c-0.284,0.58-0.683,1.132-1.134,1.593c-0.804,0.825-1.414,0.713-2.11-0.133
			c-0.959-1.165-1.442-2.532-1.323-4.036c0.041-0.499,0.34-1.03,0.654-1.45c0.581-0.782,1.261-1.492,1.899-2.232
			c0.071,0.058,0.141,0.109,0.214,0.162c-0.299,0.543-0.599,1.082-0.893,1.625c-0.395,0.731-0.822,1.446-0.739,2.335
			c0.064,0.688,0.831,1.598,1.508,1.607c0.754,0.008,1.139-0.582,1.433-1.167c0.865-1.726,1.969-3.293,3.371-4.6
			c1.095-1.021,2.35-1.872,3.535-2.796C77.5,71.906,77.751,71.766,78.005,71.631z M104.531,71.102
			c1.188,0.344,2.25,0.941,3.502,0.625c0.033-0.839-0.308-1.489-0.882-2c-0.402-0.355-0.902-0.913-1.317-0.876
			c-0.739,0.064-0.946,0.871-1.151,1.528C104.618,70.585,104.594,70.803,104.531,71.102z"/>
		<path fill-rule="evenodd" clip-rule="evenodd" d="M14.587,9.85c1.582,1.011,3.066,2.062,4.644,2.946
			c3.438,1.927,7.063,3.417,10.965,4.107c4.538,0.801,8.858,2.246,13.034,4.172c5.311,2.448,9.101,6.479,11.966,11.467
			c0.6,1.043,1.093,2.149,1.597,3.244c0.343,0.745-0.067,1.461-0.867,1.713c-0.709,0.223-2.228-0.53-2.47-1.309
			c-0.786-2.55-2.288-4.695-3.955-6.734c-1.529-1.871-3.307-3.496-5.287-4.864c-2.535-1.753-5.316-3.097-8.228-4.064
			c-2.424-0.805-4.945-1.323-7.438-1.914c-3.997-0.945-7.685-2.559-10.86-5.174c-1.148-0.948-2.05-2.196-3.058-3.312
			C14.585,10.077,14.603,9.971,14.587,9.85z"/>
		<path fill-rule="evenodd" clip-rule="evenodd" d="M17.596,71.019c0.093-0.768,0.14-1.544,0.288-2.301
			c0.326-1.664,0.604-3.344,1.077-4.967c1.337-4.602,3.252-8.91,6.305-12.692c2.551-3.165,5.652-5.563,9.242-7.361
			c2.724-1.363,5.657-2.072,8.65-2.551c0.088-0.015,0.184-0.03,0.263-0.004c1.586,0.513,3.173,1.033,4.49,2.116
			c0.158,0.131,0.252,0.338,0.359,0.486C31.227,45.206,21.19,54.434,17.596,71.019z"/>
		<path fill-rule="evenodd" clip-rule="evenodd" d="M52.739,72.691c-0.171,0.131-0.342,0.263-0.513,0.393
			c-1.124,0.403-2.228,0.889-3.379,1.186c-1.224,0.311-2.486,0.471-3.74,0.634c-0.844,0.113-1.705,0.195-2.549,0.15
			c-1.635-0.089-3.321-0.226-4.732-1.091c-1.036-0.634-1.859-1.616-2.782-2.438c-0.401-0.355-0.768-0.792-1.234-1.021
			c-0.964-0.48-1.87-0.137-2.616,0.833c-1.206,1.568-1.88,3.374-2.374,5.263c-0.145,0.561-0.275,1.167-0.922,1.322
			c-0.703,0.172-1.258-0.174-1.736-0.688c-1.479-1.586-2-3.441-1.562-5.558c0.252-1.216,0.534-2.425,0.813-3.633
			c0.04-0.172,0.145-0.328,0.219-0.492c0.062,0.019,0.123,0.034,0.184,0.05c-0.083,0.854-0.188,1.707-0.246,2.56
			c-0.108,1.6-0.181,3.206,0.829,4.599c0.624,0.859,1.455,0.806,1.864-0.146c0.479-1.11,0.802-2.286,1.3-3.389
			c0.389-0.86,0.872-1.699,1.438-2.455c1.037-1.385,2.749-1.438,4.029-0.188c0.389,0.382,0.708,0.833,1.049,1.263
			c1.249,1.571,2.864,2.432,4.872,2.602c2.679,0.226,5.371,0.295,7.963-0.434c1.484-0.414,2.958-1.092,4.238-1.946
			c1.397-0.935,1.579-2.205,0.041-3.429c-0.6-0.479-0.697-0.83-0.568-1.448c0.141-0.686,0.248-1.377,0.391-2.195
			c1.417,1.453,2.358,2.912,2.553,4.92C55.798,70.311,54.602,71.645,52.739,72.691z"/>
		<path fill-rule="evenodd" clip-rule="evenodd" d="M34.761,0c4.088,0.175,7.168,2.005,9.25,5.522
			c1.217,2.056,1.691,4.347,2.252,6.622c0.581,2.357,1.633,4.492,3.306,6.277c1.724,1.838,3.659,3.414,5.944,4.518
			c0.656,0.318,0.436,0.859,0.333,1.307c-0.167,0.722-0.827,1.101-1.754,0.956c-1.572-0.244-2.992-0.848-4.252-1.87
			c-2.364-1.92-3.776-4.485-4.703-7.274c-0.861-2.584-1.365-5.289-2.034-7.938c-0.376-1.488-1.079-2.802-2.1-3.957
			c-1.648-1.865-3.745-3.045-5.986-4.022C34.928,0.103,34.846,0.047,34.761,0z"/>
		<path fill-rule="evenodd" clip-rule="evenodd" d="M37.798,35.808c-1.973,0.374-3.957,0.702-5.917,1.132
			c-2.8,0.614-5.504,0.417-8.037-0.936c-2.254-1.203-3.965-3.019-5.279-5.203c-0.325-0.538-0.601-1.105-0.899-1.661
			c0.068-0.041,0.137-0.082,0.205-0.122c0.396,0.457,0.796,0.912,1.187,1.374c2.041,2.41,4.583,4.034,7.67,4.693
			c1.746,0.371,3.507,0.278,5.262-0.217c1.709-0.484,3.46-0.846,5.21-1.165c0.716-0.132,1.48-0.02,2.221-0.004
			c2.177,0.045,4.379-0.089,6.524,0.193c3.189,0.418,5.951,1.724,7.452,4.843c0.088,0.177,0.152,0.364,0.216,0.551
			c0.02,0.056,0.004,0.123,0.004,0.259c-3.682-2.809-7.957-3.496-12.361-3.735C40.103,35.81,38.952,35.809,37.798,35.808z"/>
		<path fill-rule="evenodd" clip-rule="evenodd" d="M41.269,29.341c0.784,0,1.57,0,2.521,0c-0.724,1.069-1.81,1.316-2.685,1.86
			c-1.399,0.004-2.8,0.008-4.199,0.012c-4.474-0.1-8.861-0.814-13.144-2.063c-2.329-0.681-4.585-1.623-6.858-2.484
			c-0.811-0.308-1.577-0.728-2.328-1.225c6.562,2.69,13.429,3.691,20.446,3.897c0.854,0.04,1.708,0.111,2.561,0.107
			C38.811,29.441,40.039,29.38,41.269,29.341z"/>
		<path fill-rule="evenodd" clip-rule="evenodd" d="M4.761,8.042C5.995,8.16,7.12,8.604,8.206,9.204
			c1.962,1.086,3.682,2.49,5.191,4.13c2.466,2.682,5.332,4.707,8.859,5.728c0.035,0.009,0.06,0.058,0.236,0.238
			c-0.59,0.227-1.099,0.528-1.64,0.608c-1.218,0.177-2.419,0.007-3.529-0.561c-1.881-0.962-3.491-2.275-4.838-3.9
			c-0.979-1.182-1.9-2.416-2.911-3.573c-1.229-1.407-2.832-2.35-4.386-3.347C5.025,8.423,4.863,8.317,4.701,8.213
			C4.722,8.156,4.742,8.099,4.761,8.042z"/>
		<path fill-rule="evenodd" clip-rule="evenodd" d="M9.436,15.664c0.667,0.98,1.287,2.072,2.082,3.018
			c1.448,1.726,3.357,2.791,5.478,3.529c2.401,0.836,4.856,1.376,7.391,1.584c1.859,0.15,3.712,0.461,5.572,0.482
			c1.636,0.02,3.276-0.266,4.915-0.417c0.209-0.02,0.417-0.044,0.652,0.019c-0.726,0.711-1.593,1.203-2.566,1.311
			c-1.938,0.214-3.893,0.426-5.838,0.401c-1.521-0.02-3.043-0.374-4.557-0.622c-2.665-0.434-5.228-1.21-7.601-2.511
			c-2.433-1.333-4.441-3.083-5.324-5.84c-0.094-0.292-0.152-0.595-0.217-0.895C9.411,15.673,9.45,15.614,9.436,15.664z"/>
		<path fill-rule="evenodd" clip-rule="evenodd" d="M36.133,59.573c0.285,0.175,0.457,0.282,0.667,0.41
			c-0.669,0.221-1.415-0.094-1.996-0.91c6.497-3.096,13.058-5.973,19.667-9.041c-0.105,0.692,0.051,1.288-0.744,1.616
			c-1.963,0.814-3.896,1.709-5.835,2.577c-1.884,0.844-3.762,1.7-5.641,2.549c-1.681,0.761-3.365,1.513-5.045,2.271
			C36.874,59.199,36.548,59.367,36.133,59.573z"/>
		<path fill-rule="evenodd" clip-rule="evenodd" d="M44.618,19.515c-3.377-1.405-6.141-3.467-8.214-6.413
			c-1.42-2.017-2.328-4.248-2.82-6.644c0.061-0.028,0.12-0.058,0.182-0.088c0.078,0.137,0.173,0.266,0.232,0.409
			c1.059,2.604,2.594,4.889,4.655,6.799c1.438,1.334,3.031,2.466,4.827,3.281C44.469,17.309,44.783,17.979,44.618,19.515z"/>
		<path fill-rule="evenodd" clip-rule="evenodd" d="M57.857,99.839c-0.499,0-1.109,0-1.624,0c0.56-1.821,0.009-3.623,0.306-5.501
			c0.677,0,1.5-0.018,2.323,0.005c1.121,0.033,1.524,1.38,0.813,2.162c-0.205,0.223-0.399,0.453-0.649,0.737
			c0.555,0.656,1.091,1.318,1.662,1.949c0.294,0.326,0.615,0.336,0.82-0.124c0.476-1.073,0.949-2.15,1.422-3.225
			c0.257-0.585,0.511-1.169,0.767-1.754c0.066,0,0.135,0.003,0.203,0.004c0.372,0.855,0.745,1.708,1.113,2.563
			c0.331,0.763,0.622,1.547,0.989,2.294c0.16,0.323,0.474,0.57,0.767,0.911c-0.489,0-1.028,0.008-1.563-0.016
			c-0.058-0.002-0.12-0.186-0.156-0.296c-0.135-0.385-0.227-0.79-0.399-1.157c-0.07-0.149-0.298-0.264-0.476-0.309
			c-0.208-0.053-0.438-0.013-0.658-0.013c-1.001,0-1.021-0.006-1.279,0.969c-0.06,0.224,0.064,0.494,0.11,0.801
			c-1.027,0.404-2.396,0.025-3.153-0.985c-0.237-0.315-0.425-0.679-0.7-0.948c-0.19-0.188-0.496-0.254-0.75-0.377
			c-0.092,0.216-0.229,0.422-0.263,0.645c-0.04,0.28-0.04,0.583,0.021,0.854C57.56,99.292,57.716,99.53,57.857,99.839z
			 M59.237,95.875c-0.195-0.355-0.31-0.769-0.579-0.993c-0.233-0.192-0.649-0.226-0.974-0.199c-0.092,0.009-0.182,0.467-0.209,0.724
			c-0.037,0.326-0.045,0.663,0.002,0.986c0.036,0.247,0.167,0.675,0.278,0.683c0.339,0.025,0.762-0.024,1.016-0.225
			C59.006,96.667,59.066,96.257,59.237,95.875z M62.834,97.518c0.568,0,1,0,1.527,0c-0.244-0.649-0.459-1.23-0.748-1.998
			C63.319,96.275,63.093,96.851,62.834,97.518z"/>
		<path fill-rule="evenodd" clip-rule="evenodd" d="M77.066,63.015c-0.351-0.024-0.468,0.146-0.391,0.474
			c0.182,0.778,0.365,1.555,0.549,2.335c0.047,0.743-0.506,0.371-0.823,0.439c-0.141-0.751-0.239-1.517-0.436-2.257
			c-0.344-1.298-0.724-2.591-1.134-3.871c-0.618-1.942-1.273-3.872-1.91-5.806c-0.406-1.233,0.042-2.361,0.434-3.493
			c0.032-0.089,0.207-0.213,0.271-0.192c0.124,0.041,0.27,0.158,0.31,0.274c0.114,0.328,0.122,0.701,0.271,1.008
			c0.344,0.7,0.696,1.406,1.138,2.044c0.52,0.745,0.622,1.462,0.156,2.244c-0.276,0.458-0.308,0.897-0.169,1.431
			c0.4,1.534,0.716,3.093,1.098,4.631c0.054,0.217-0.02,0.71,0.511,0.531C76.982,62.874,77.026,62.945,77.066,63.015z"/>
		<path fill-rule="evenodd" clip-rule="evenodd" d="M78.685,64.92c0.818-0.184,1.639-0.351,2.455-0.547
			c2.495-0.606,4.956-1.338,7.119-2.763c1.271-0.839,2.426-1.847,3.652-2.752c0.304-0.225,0.677-0.354,1.177-0.611
			c-1.095,2.559-2.804,4.229-5.135,5.194c-1.603,0.664-3.252,1.29-4.942,1.66c-1.303,0.283-2.698,0.14-4.052,0.173
			c-0.087,0.006-0.177-0.095-0.267-0.146C78.689,65.057,78.687,64.988,78.685,64.92z"/>
		<path fill-rule="evenodd" clip-rule="evenodd" d="M107.001,99.835c0.125-0.313,0.271-0.575,0.332-0.857
			c0.36-1.714-0.747-2.888-1.575-4.153c-0.267-0.409-0.633-0.439-0.93,0.034c-0.43,0.688-1.015,1.33-1.253,2.079
			c-0.238,0.761-0.155,1.634-0.172,2.457c-0.002,0.148,0.199,0.303,0.301,0.446c-0.527,0-1.141,0-1.78,0
			c1.226-2.313-0.548-3.737-1.59-5.426c0.431,0,0.858,0,1.239,0c0.439,0.782,0.875,1.561,1.411,2.512
			c0.497-0.901,0.917-1.664,1.425-2.589c0.684-0.036,1.551-0.081,2.217-0.119c0.504,0.936,0.941,1.75,1.379,2.559
			c0.066-0.01,0.133-0.021,0.198-0.028c0.335-0.822,1.117-1.44,1.07-2.452c0.317,0.032,0.68,0.071,0.971,0.101
			c-0.53,0.845-1.205,1.66-1.576,2.595c-0.276,0.687-0.185,1.532-0.182,2.306c0,0.161,0.322,0.323,0.552,0.537
			C108.294,99.835,107.573,99.835,107.001,99.835z"/>
		<path fill-rule="evenodd" clip-rule="evenodd" d="M27.478,99.83c-0.528,0-1.049,0-1.396,0c0.123-0.436,0.29-0.887,0.376-1.354
			c0.247-1.315,0.463-2.638,0.686-3.958c0.017-0.105,0.002-0.214,0.002-0.321c0.052-0.038,0.105-0.075,0.159-0.112
			c0.146,0.19,0.327,0.36,0.432,0.568c0.493,0.981,0.963,1.974,1.445,2.957c0.094,0.192,0.202,0.376,0.404,0.747
			c0.753-1.524,1.433-2.902,2.112-4.277c0.075,0.019,0.149,0.037,0.225,0.059c0.11,0.657,0.228,1.314,0.329,1.976
			c0.144,0.953,0.238,1.915,0.436,2.857c0.065,0.312,0.385,0.572,0.628,0.909c-0.471-0.041-1.029-0.086-1.583-0.138
			c-0.143-1.162-0.279-2.282-0.417-3.403c-0.049-0.019-0.099-0.036-0.148-0.054c-0.568,1.159-1.137,2.318-1.706,3.476
			c-0.073,0.017-0.146,0.033-0.221,0.046c-0.569-1.096-1.137-2.193-1.706-3.288c-0.051,0.002-0.102,0.004-0.153,0.006
			c-0.121,0.94-0.258,1.881-0.338,2.827C27.03,99.479,27.292,99.635,27.478,99.83z"/>
		<path fill-rule="evenodd" clip-rule="evenodd" d="M0,94.394c0.387,0,0.759,0,1.133,0c0.35,1.196,0.699,2.395,1.05,3.596
			c0.063,0.013,0.127,0.023,0.192,0.037c0.499-1.254,0.998-2.505,1.497-3.759c0.063-0.002,0.127-0.005,0.19-0.009
			c0.529,1.248,1.059,2.498,1.587,3.749c0.053,0.003,0.106,0.003,0.16,0.003c0.357-1.179,0.714-2.356,1.096-3.613
			c0.141-0.006,0.374-0.017,0.665-0.029c-0.644,1.867-1.27,3.685-1.894,5.501c-0.078,0.004-0.157,0.011-0.235,0.017
			c-0.541-1.254-1.084-2.508-1.689-3.91c-0.588,1.414-1.116,2.686-1.644,3.955c-0.082-0.007-0.164-0.016-0.246-0.024
			C1.25,98.093,0.637,96.28,0,94.394z"/>
		<path fill-rule="evenodd" clip-rule="evenodd" d="M17.565,94.76c0.334,1.099,0.668,2.193,1.002,3.292c0.052,0,0.104,0,0.156,0.001
			c0.495-1.255,0.989-2.509,1.484-3.765c0.068-0.002,0.138-0.007,0.207-0.009c0.538,1.26,1.075,2.521,1.689,3.961
			c0.413-1.398,0.768-2.593,1.135-3.833c0.205,0,0.439,0,0.666,0c-0.625,1.815-1.249,3.63-1.873,5.443
			c-0.075,0.021-0.148,0.044-0.223,0.064c-0.539-1.233-1.077-2.466-1.614-3.699c-0.06-0.005-0.119-0.007-0.178-0.012
			c-0.516,1.224-1.031,2.45-1.547,3.676c-0.091,0.003-0.181,0.006-0.271,0.008c-0.597-1.801-1.193-3.603-1.79-5.4
			C16.855,94.317,17.279,94.247,17.565,94.76z"/>
		<path fill-rule="evenodd" clip-rule="evenodd" d="M15.731,94.492c-0.525,1.487-1.05,2.979-1.578,4.465
			c-0.107,0.307-0.233,0.604-0.35,0.904c-0.066,0.017-0.131,0.033-0.197,0.049c-0.532-1.227-1.063-2.454-1.596-3.683
			c-0.061-0.01-0.12-0.023-0.18-0.037c-0.516,1.224-1.033,2.45-1.549,3.674c-0.089,0.009-0.176,0.019-0.264,0.027
			c-0.611-1.81-1.223-3.621-1.85-5.479c0.368,0,0.706,0,1.101,0c0.359,1.189,0.729,2.409,1.1,3.63
			c0.052,0.007,0.105,0.014,0.156,0.019c0.493-1.251,0.986-2.503,1.48-3.757c0.071-0.007,0.143-0.016,0.215-0.024
			c0.536,1.258,1.072,2.516,1.686,3.956c0.357-1.197,0.657-2.201,0.958-3.207C15.145,94.839,15.105,94.123,15.731,94.492z"/>
		<path fill-rule="evenodd" clip-rule="evenodd" d="M28.392,63.746c-0.81-0.414-1.527-0.778-2.291-1.171
			c0.346-0.691,0.689-1.363,1.011-2.042c0.191-0.403,0.44-0.244,0.694-0.101c0.561,0.323,1.118,0.648,1.696,0.984
			c0.483-0.734,0.923-1.396,1.385-2.098c0.775,0.513,1.529,1.015,2.301,1.53c-0.371,0.615-0.707,1.224-1.099,1.795
			c-0.081,0.116-0.411,0.188-0.55,0.124c-0.669-0.318-1.314-0.69-1.97-1.044C29.183,62.387,28.802,63.046,28.392,63.746z"/>
		<path fill-rule="evenodd" clip-rule="evenodd" d="M45.889,78.101c-0.44,0.716-0.858,1.396-1.312,2.136
			c-0.777-0.414-1.527-0.813-2.307-1.23c-0.395,0.663-0.784,1.31-1.189,1.989c-0.75-0.38-1.481-0.752-2.271-1.155
			c0.411-0.828,0.801-1.606,1.205-2.415c0.767,0.433,1.481,0.836,2.193,1.242c0.504-0.69,0.984-1.35,1.488-2.037
			C44.458,77.139,45.156,77.607,45.889,78.101z"/>
		<path fill-rule="evenodd" clip-rule="evenodd" d="M77.066,63.015c-0.041-0.069-0.084-0.141-0.124-0.208
			c2.433-0.781,4.671-1.94,6.73-3.451c0.189-0.14,0.365-0.307,0.529-0.478c0.357-0.371,0.376-0.679-0.131-0.967
			c-0.759-0.433-0.888-1.078-0.395-1.79c0.207-0.303,0.393-0.624,0.638-0.895c0.553-0.614,1.167-0.486,1.521,0.231
			c0.833,1.688-0.143,3.396-1.244,4.306c-1.551,1.288-3.322,2.154-5.285,2.628C78.552,62.571,77.812,62.807,77.066,63.015z"/>
		<path fill-rule="evenodd" clip-rule="evenodd" d="M33.628,4.157c0.256,0.442,0.511,0.886,0.769,1.328
			c1.691,2.918,3.987,5.169,7.138,6.481c0.41,0.17,0.888,1.063,0.72,1.465c-0.047,0.115-0.434,0.189-0.62,0.132
			c-2.196-0.664-3.93-1.977-5.338-3.776c-1.234-1.581-2.031-3.377-2.736-5.228c-0.042-0.109-0.038-0.232-0.055-0.35
			C33.546,4.193,33.587,4.174,33.628,4.157z"/>
		<path fill-rule="evenodd" clip-rule="evenodd" d="M121.209,99.901c-1.833-0.028-3.152-1.237-3.009-2.95
			c0.154-1.838,1.206-2.828,3.188-2.803c1.701,0.025,3.084,0.8,3.023,2.984C124.375,98.471,123.07,100.048,121.209,99.901z
			 M123.339,97.215c0.046-0.016,0.092-0.032,0.138-0.048c-0.21-0.59-0.345-1.224-0.645-1.761c-0.416-0.732-1.337-1.038-2.13-0.838
			c-0.741,0.187-1.243,0.742-1.3,1.641c-0.035,0.604,0.013,1.242,0.187,1.814c0.32,1.05,1.32,1.634,2.299,1.475
			c0.862-0.14,1.39-0.876,1.451-2.02C123.341,97.39,123.339,97.302,123.339,97.215z"/>
		<path fill-rule="evenodd" clip-rule="evenodd" d="M72.454,94.715c0.043-0.112,0.077-0.318,0.13-0.326
			c0.328-0.029,0.657-0.016,0.921-0.016c0,0.645-0.02,1.261,0.015,1.875c0.006,0.133,0.204,0.361,0.32,0.366
			c0.83,0.032,1.657,0.017,2.551,0.017c0-0.772,0-1.461,0-2.249c0.344,0,0.75-0.001,1.154,0.007c0.015,0.003,0.027,0.119,0.04,0.184
			c-0.038,0.472-0.118,0.945-0.108,1.414c0.015,1.146,0.072,2.294,0.112,3.438c0.114,0.131,0.229,0.262,0.368,0.42
			c-0.637,0-1.245,0-1.939,0c0.724-0.891,0.372-1.815,0.364-2.702c-0.827-0.024-1.653-0.066-2.482-0.06
			c-0.126,0-0.359,0.213-0.361,0.329c-0.002,0.631,0.052,1.259,0.085,1.892c0.139,0.156,0.28,0.314,0.457,0.517
			c-0.619,0-1.272,0-1.914,0c0.103-0.273,0.197-0.521,0.289-0.771C72.454,97.604,72.454,96.161,72.454,94.715z"/>
		<path fill-rule="evenodd" clip-rule="evenodd" d="M59.681,78.419c-0.271-0.315-0.833-0.614-0.386-1.314
			c0.448-0.697,1.142-1.078,1.994-0.963c0.944,0.131,1.09,0.426,0.509,1.166c-0.509,0.649-1.088,1.245-1.616,1.879
			c-0.165,0.2-0.337,0.438-0.374,0.676c-0.038,0.251,0.004,0.604,0.161,0.769c0.141,0.15,0.549,0.232,0.728,0.135
			c0.82-0.438,1.606-0.938,2.395-1.439c0.273-0.171,0.514-0.396,0.773-0.595c0.042,0.041,0.085,0.085,0.128,0.126
			c-0.092,0.154-0.15,0.357-0.282,0.467c-1.077,0.89-2.149,1.788-3.264,2.629c-0.425,0.323-0.959,0.372-1.469,0.081
			c-0.481-0.273-0.699-0.645-0.449-1.184C58.902,80.051,59.284,79.258,59.681,78.419z"/>
		<path fill-rule="evenodd" clip-rule="evenodd" d="M42.581,95.113c-0.022-0.21-0.045-0.424-0.073-0.688c0.265,0,0.553,0,0.701,0
			c0,1.794,0,3.596,0,5.397c-0.097,0.043-0.19,0.092-0.289,0.137c-1.339-1.29-2.68-2.578-4.177-4.017
			c0,0.623-0.015,1.068,0.004,1.511c0.02,0.482,0.032,0.969,0.115,1.44c0.058,0.323,0.231,0.626,0.364,0.962
			c-0.397,0-0.901,0-1.348,0c0.427-1.873,0.306-3.771,0.404-5.844c1.467,1.444,2.803,2.758,4.138,4.069
			c0.093-0.038,0.269-0.074,0.269-0.105C42.661,97.021,42.622,96.064,42.581,95.113z"/>
		<path fill-rule="evenodd" clip-rule="evenodd" d="M88.723,97.29c0.829,0.878,1.644,1.734,2.415,2.551
			c-0.869,0.314-1.496-0.135-2.214-1.007c-0.263-0.321-0.443-0.713-0.732-1.002c-0.171-0.17-0.476-0.257-0.727-0.267
			c-0.077-0.005-0.218,0.357-0.244,0.563c-0.036,0.301-0.04,0.624,0.023,0.918c0.056,0.261,0.227,0.496,0.364,0.78
			c-0.488,0-1.108,0-1.585,0c0.079-0.567,0.19-1.081,0.212-1.597c0.037-0.934,0.027-1.868,0.017-2.801
			c-0.002-0.323-0.066-0.644-0.118-1.082c0.818,0,1.656-0.005,2.493,0.003c1.015,0.007,1.521,1.288,0.814,2.121
			C89.245,96.702,89.042,96.929,88.723,97.29z M87.208,95.816c0,0.22,0.02,0.44-0.004,0.657c-0.064,0.599,0.276,0.713,0.765,0.666
			c0.525-0.047,0.758-0.396,0.858-0.854c0.151-0.684-0.088-1.286-0.587-1.541c-0.658-0.339-1.023-0.122-1.032,0.614
			C87.206,95.512,87.208,95.663,87.208,95.816z"/>
		<path fill-rule="evenodd" clip-rule="evenodd" d="M33.519,1.821c0.216,0.349,0.426,0.702,0.65,1.046
			c1.718,2.64,4,4.528,7.11,5.307c0.58,0.145,0.874,0.722,0.878,1.629C38.007,9.302,34.465,6.151,33.519,1.821z"/>
		<path fill-rule="evenodd" clip-rule="evenodd" d="M130.997,99.74c-0.902,0.436-1.683,0.027-2.417-0.902
			c-0.257-0.325-0.445-0.716-0.732-1.006c-0.173-0.17-0.477-0.255-0.729-0.267c-0.074-0.005-0.215,0.359-0.242,0.566
			c-0.039,0.282-0.042,0.583,0.019,0.855c0.067,0.279,0.23,0.538,0.369,0.845c-0.492,0-1.116,0-1.654,0
			c0.544-1.819,0.252-3.592,0.25-5.484c0.747,0,1.583-0.007,2.42,0.003c1.021,0.009,1.524,1.295,0.814,2.121
			c-0.196,0.232-0.399,0.459-0.654,0.753C129.216,98.104,129.744,99.227,130.997,99.74z M126.862,95.87
			c0,0.194,0.019,0.396-0.006,0.59c-0.063,0.583,0.244,0.729,0.751,0.682c0.557-0.051,0.792-0.419,0.883-0.907
			c0.129-0.701-0.126-1.279-0.643-1.515c-0.654-0.299-0.977-0.098-0.985,0.623C126.86,95.52,126.862,95.692,126.862,95.87z"/>
		<path fill-rule="evenodd" clip-rule="evenodd" d="M135.229,97.174c0.347,0,0.782,0,1.174,0c-0.04,0.534-0.161,1.079-0.094,1.595
			c0.096,0.731-0.294,1.048-0.869,1.093c-1.238,0.095-2.52,0.191-3.576-0.667c-0.784-0.636-1.134-1.532-0.964-2.514
			c0.178-1.04,0.658-1.935,1.78-2.299c1.176-0.385,2.338-0.255,3.553,0.03c0,0.38,0,0.758,0,1.339
			c-0.595-1.099-1.474-1.163-2.417-1.126c-0.907,0.036-1.41,0.388-1.674,1.27c-0.551,1.818,0.695,3.667,2.427,3.633
			c0.455-0.01,0.699-0.135,0.669-0.646C135.203,98.325,135.229,97.764,135.229,97.174z"/>
		<path fill-rule="evenodd" clip-rule="evenodd" d="M92.101,94.297c0.737,0,1.538-0.101,2.305,0.021
			c1.365,0.214,1.701,1.339,0.77,2.358c-0.147,0.163-0.335,0.287-0.607,0.514c0.857,0.936,1.654,1.806,2.42,2.643
			c-0.571,0.202-1.396-0.007-1.807-0.545c-0.319-0.418-0.633-0.837-0.915-1.274c-0.269-0.418-0.596-0.622-1.177-0.408
			c0.037,0.742-0.299,1.561,0.519,2.249c-0.677,0-1.273,0-1.817,0C92.449,98.044,92.075,96.231,92.101,94.297z M94.899,95.906
			c-0.2-0.37-0.309-0.795-0.583-1.011c-0.252-0.196-0.683-0.215-1.032-0.208c-0.072,0.002-0.163,0.476-0.188,0.737
			c-0.034,0.326-0.039,0.66,0.002,0.983c0.027,0.235,0.129,0.644,0.233,0.656c0.341,0.031,0.774,0.026,1.031-0.161
			C94.62,96.713,94.707,96.289,94.899,95.906z"/>
		<path fill-rule="evenodd" clip-rule="evenodd" d="M43.96,58.769c0,0.176-0.013,0.353,0,0.524c0.058,0.731,0.064,1.472,0.212,2.181
			c0.053,0.256,0.476,0.641,0.681,0.61c0.282-0.038,0.592-0.373,0.752-0.657c0.156-0.285,0.141-0.664,0.353-1.102
			c0.297,0.427,0.591,0.853,0.901,1.299c0.421-0.227,0.652-0.467,0.357-0.902c-0.389-0.578-0.03-1.108,0.077-1.773
			c0.598,0.414,0.998,0.868,1.088,1.525c0.108,0.793-0.163,1.489-0.764,1.987c-0.184,0.153-0.66,0.121-0.903-0.009
			c-0.664-0.359-1.038-0.188-1.401,0.439c-0.438,0.761-1.208,0.931-1.882,0.395c-0.291-0.227-0.534-0.72-0.525-1.082
			c0.027-1.211,0.263-2.388,0.874-3.452C43.838,58.757,43.898,58.763,43.96,58.769z"/>
		<path fill-rule="evenodd" clip-rule="evenodd" d="M55.79,54.391c0,0.641-0.021,1.175,0.006,1.708
			c0.019,0.366,0.028,0.764,0.182,1.081c0.138,0.282,0.459,0.632,0.716,0.648c0.23,0.013,0.521-0.369,0.709-0.628
			c0.113-0.156,0.053-0.426,0.122-0.624c0.053-0.148,0.188-0.267,0.287-0.396c0.119,0.102,0.269,0.188,0.354,0.313
			c0.199,0.298,0.203,0.898,0.737,0.655c0.147-0.069,0.015-0.706,0.047-1.08c0.039-0.452,0.115-0.907,0.184-1.419
			c1.218,0.89,1.448,2.067,0.694,3.183c-0.297,0.44-0.633,0.692-1.228,0.338c-0.82-0.484-0.866-0.433-1.393,0.342
			c-0.592,0.87-0.809,0.965-1.572,0.676c-0.646-0.244-1.053-0.906-0.885-1.692c0.208-0.981,0.533-1.938,0.813-2.902
			C55.574,54.549,55.642,54.519,55.79,54.391z"/>
		<path fill-rule="evenodd" clip-rule="evenodd" d="M97.574,53.284c1.818-0.002,2.191,0.611,1.531,1.884
			c-0.758,1.466-2.155,2.147-3.661,1.784c-0.564-0.131-1.063-0.44-1.074-1.027c-0.012-0.467,0.15-1.026,0.435-1.39
			C95.592,53.541,96.753,53.32,97.574,53.284z M96.8,56.263c0.75,0.047,1.224-0.265,1.484-0.907c0.2-0.495-0.076-0.93-0.596-0.862
			c-0.433,0.056-0.91,0.199-1.247,0.46c-0.256,0.197-0.323,0.643-0.474,0.976C96.245,56.04,96.523,56.151,96.8,56.263z"/>
		<path fill-rule="evenodd" clip-rule="evenodd" d="M45.485,94.611c0.077-0.08,0.149-0.227,0.229-0.229
			c0.615-0.02,1.239-0.07,1.845,0.01c0.349,0.045,0.847,0.238,0.951,0.499c0.137,0.338-0.012,0.814-0.112,1.213
			c-0.047,0.184-0.268,0.327-0.408,0.49c0.329,0.27,0.664,0.483,0.922,0.768c0.551,0.605,0.408,1.611-0.31,2.065
			c-0.346,0.218-0.754,0.424-1.149,0.459c-0.82,0.07-1.651,0.021-2.535,0.021c0.248-0.262,0.41-0.429,0.572-0.601
			C45.487,97.742,45.487,96.177,45.485,94.611z M46.538,98.053c0,0.178,0.011,0.354,0,0.526c-0.036,0.504,0.099,0.868,0.687,0.904
			c0.568,0.034,0.979-0.297,1.037-0.861c0.065-0.623-0.16-1.144-0.683-1.467c-0.24-0.149-0.579-0.199-0.861-0.174
			c-0.079,0.006-0.13,0.438-0.175,0.681C46.52,97.788,46.538,97.921,46.538,98.053z M46.504,95.547
			c0.227,0.328-0.354,1.001,0.481,1.052c0.551,0.029,0.877-0.315,0.89-0.898c0.015-0.64-0.388-1.149-0.936-1.114
			C46.209,94.627,46.692,95.229,46.504,95.547z"/>
		<path fill-rule="evenodd" clip-rule="evenodd" d="M100.453,81.77c2.924-1.571,5.618-3.455,8.142-5.592
			c0.115-0.096,0.37-0.029,0.582-0.044C108.138,79.001,103.089,82.314,100.453,81.77z"/>
		<path fill-rule="evenodd" clip-rule="evenodd" d="M83.559,94.715c0.02-0.112,0.03-0.317,0.063-0.321
			c0.259-0.025,0.523-0.016,0.714-0.016c0,0.725,0,1.414-0.002,2.104c0,0.396,0.015,0.794-0.017,1.187
			c-0.08,0.961-0.423,1.784-1.423,2.09c-0.843,0.26-1.783,0.395-2.469-0.268c-0.41-0.397-0.694-1.048-0.778-1.623
			c-0.128-0.886-0.026-1.802-0.038-2.705c-0.002-0.23-0.073-0.462-0.126-0.778c0.395,0,0.82-0.003,1.245,0.009
			c0.011,0,0.022,0.124,0.031,0.191c0.001,1.221,0.001,2.445,0.001,3.666c0.093,0.796,0.553,1.242,1.303,1.267
			c0.761,0.028,1.302-0.482,1.495-1.406C83.556,96.979,83.556,95.847,83.559,94.715z"/>
		<path fill-rule="evenodd" clip-rule="evenodd" d="M112.821,93.97c0.193,0.301,0.339,0.467,0.425,0.666
			c0.585,1.369,1.138,2.754,1.745,4.113c0.174,0.386,0.494,0.708,0.756,1.072c-0.425,0-0.976,0-1.461,0
			c-0.197-0.514-0.381-1.022-0.597-1.518c-0.046-0.103-0.209-0.199-0.332-0.217c-0.236-0.038-0.481-0.016-0.724-0.016
			c-1.021,0-1.567,0.678-1.348,1.688c-0.45,0.042-0.903,0.082-1.354,0.116c-0.022,0.003-0.053-0.061,0.031,0.042
			c0.304-0.481,0.628-0.882,0.837-1.338C111.468,97.119,112.095,95.637,112.821,93.97z M113.446,97.522
			c-0.248-0.66-0.47-1.256-0.756-2.02c-0.292,0.768-0.518,1.36-0.767,2.02C112.488,97.522,112.916,97.522,113.446,97.522z"/>
		<path fill-rule="evenodd" clip-rule="evenodd" d="M50.659,99.782c-0.263,0.021-0.737,0.059-1.068,0.087
			c0.274-0.437,0.594-0.842,0.801-1.295c0.67-1.463,1.296-2.942,2.008-4.57c0.183,0.264,0.35,0.433,0.438,0.64
			c0.589,1.368,1.143,2.752,1.751,4.114c0.173,0.385,0.494,0.704,0.792,1.113c-0.448,0-0.998,0.06-1.517-0.039
			c-0.145-0.027-0.177-0.534-0.299-0.808c-0.141-0.323-0.273-0.842-0.498-0.896c-0.54-0.126-1.267-0.23-1.664,0.034
			C51.009,98.427,50.921,99.154,50.659,99.782z M53.037,97.509c-0.244-0.653-0.466-1.244-0.748-2.006
			c-0.299,0.771-0.523,1.35-0.778,2.006C52.06,97.509,52.502,97.509,53.037,97.509z"/>
		<path fill-rule="evenodd" clip-rule="evenodd" d="M67.7,94.575c0.097-0.069,0.194-0.187,0.299-0.197
			c0.279-0.027,0.563-0.01,0.829-0.01c0,1.341-0.024,2.629,0.015,3.914c0.013,0.356,0.184,0.991,0.337,1.012
			c0.528,0.06,1.083-0.087,1.622-0.182c0.109-0.019,0.194-0.157,0.292-0.243c0.042,0.968-0.027,1.051-0.92,1.053
			c-0.968,0.002-1.936,0-3.084,0c0.3-0.24,0.455-0.365,0.608-0.489c0.04-1.147,0.096-2.296,0.113-3.443
			C67.817,95.52,67.738,95.047,67.7,94.575z"/>
		<path fill-rule="evenodd" clip-rule="evenodd" d="M82.149,78.723c0.425-0.591,0.791-1.12,1.179-1.627
			c0.196-0.26,0.43-0.368,0.779-0.175c0.588,0.318,1.208,0.572,1.893,0.889c-0.449,0.786-0.875,1.529-1.325,2.313
			C83.803,79.639,82.989,79.187,82.149,78.723z"/>
		<path fill-rule="evenodd" clip-rule="evenodd" d="M99.47,62.813c-0.447,0.766-0.853,1.456-1.282,2.189
			c-0.856-0.431-1.702-0.854-2.624-1.317c0.47-0.646,0.905-1.264,1.377-1.855c0.066-0.085,0.333-0.087,0.462-0.026
			C98.069,62.11,98.722,62.445,99.47,62.813z"/>
		<path fill-rule="evenodd" clip-rule="evenodd" d="M35.95,99.301c0.149,0.165,0.3,0.332,0.49,0.538c-0.714,0-1.433,0-2.165,0
			c0.174-0.187,0.339-0.361,0.506-0.541c-0.002-1.559-0.004-3.116-0.006-4.678c0.041-0.502,0.42-0.205,0.625-0.229
			c0.174-0.021,0.37,0.144,0.555,0.229C35.955,96.182,35.953,97.742,35.95,99.301z"/>
		<path fill-rule="evenodd" clip-rule="evenodd" d="M99.132,99.301c0.141,0.158,0.282,0.318,0.46,0.519c-0.607,0-1.247,0-1.924,0
			c0.1-0.178,0.198-0.349,0.296-0.521c-0.002-1.559-0.004-3.116-0.007-4.678c0.042-0.502,0.421-0.205,0.628-0.229
			c0.173-0.021,0.368,0.144,0.553,0.229C99.139,96.182,99.135,97.742,99.132,99.301z"/>
		<path fill-rule="evenodd" clip-rule="evenodd" d="M77.848,56.069c0.169-0.572,0.319-1.088,0.479-1.632
			c1.051,0.773,1.515,3.061,0.918,4.461C78.912,57.833,79.059,56.595,77.848,56.069z"/>
		<path fill-rule="evenodd" clip-rule="evenodd" d="M78.005,71.631c-0.254,0.135-0.506,0.275-0.757,0.41
			c-0.152-1.191-0.304-2.383-0.456-3.575c0.299-0.174,0.599-0.349,0.899-0.524c0.094,0.88,0.194,1.757,0.278,2.639
			C78.003,70.928,77.995,71.282,78.005,71.631z"/>
		<path fill-rule="evenodd" clip-rule="evenodd" d="M77.333,73.881c0.171-0.135,0.341-0.268,0.515-0.4
			c0.058,0.89-0.027,1.757-0.515,2.563C77.333,75.322,77.333,74.601,77.333,73.881z"/>
		<path fill-rule="evenodd" clip-rule="evenodd" d="M24.518,98.517c0.287,0.333,0.562,0.508,0.561,0.688
			c0,0.187-0.266,0.372-0.417,0.555c-0.179-0.151-0.466-0.277-0.507-0.461C24.115,99.124,24.331,98.89,24.518,98.517z"/>
		<path fill-rule="evenodd" clip-rule="evenodd" d="M117.478,99.233c-0.343,0.253-0.536,0.504-0.716,0.496
			c-0.179-0.014-0.469-0.287-0.469-0.452c-0.006-0.168,0.264-0.453,0.443-0.481C116.91,98.769,117.123,99.012,117.478,99.233z"/>
		<path fill-rule="evenodd" clip-rule="evenodd" fill="#FDFDFD" d="M41.269,29.341c-1.23,0.039-2.458,0.1-3.687,0.105
			c-0.854,0.004-1.707-0.068-2.561-0.107C37.104,29.34,39.187,29.341,41.269,29.341z"/>
		<path fill-rule="evenodd" clip-rule="evenodd" d="M15.731,94.492c-0.626-0.369-0.586,0.347-0.869,0.536
			c-0.042-0.224-0.083-0.451-0.135-0.729c0.895,0,1.947,0,3.036,0c-0.06,0.137-0.13,0.301-0.198,0.46
			c-0.287-0.513-0.71-0.442-1.157-0.272C16.183,94.49,15.958,94.49,15.731,94.492z"/>
		<path fill-rule="evenodd" clip-rule="evenodd" fill="#FDFDFD" d="M73.623,99.303c-0.034-0.633-0.087-1.261-0.085-1.892
			c0.002-0.116,0.235-0.329,0.361-0.329c0.829-0.007,1.655,0.035,2.482,0.06c-0.719,0.003-1.434,0.011-2.151,0.005
			c-0.408-0.002-0.598,0.18-0.594,0.591C73.64,98.26,73.627,98.78,73.623,99.303z"/>
		<path fill-rule="evenodd" clip-rule="evenodd" fill="#FDFDFD" d="M77.589,99.424c-0.04-1.144-0.098-2.291-0.112-3.438
			c-0.009-0.469,0.07-0.942,0.108-1.414C77.587,96.19,77.587,97.809,77.589,99.424z"/>
		<path fill-rule="evenodd" clip-rule="evenodd" fill="#FDFDFD" d="M67.7,94.575c0.038,0.472,0.117,0.944,0.111,1.414
			c-0.017,1.147-0.073,2.296-0.113,3.443C67.698,97.815,67.698,96.193,67.7,94.575z"/>
		<path fill-rule="evenodd" clip-rule="evenodd" fill="#FDFDFD" d="M97.958,94.62c0.002,1.562,0.005,3.119,0.007,4.678
			C97.962,97.739,97.96,96.182,97.958,94.62z"/>
		<path fill-rule="evenodd" clip-rule="evenodd" fill="#FDFDFD" d="M99.132,99.301c0.002-1.559,0.007-3.119,0.007-4.681
			C99.137,96.182,99.135,97.742,99.132,99.301z"/>
		<path fill-rule="evenodd" clip-rule="evenodd" fill="#FDFDFD" d="M34.776,94.62c0.001,1.562,0.003,3.119,0.006,4.678
			C34.779,97.739,34.777,96.182,34.776,94.62z"/>
		<path fill-rule="evenodd" clip-rule="evenodd" fill="#FDFDFD" d="M35.95,99.301c0.002-1.559,0.004-3.119,0.006-4.681
			C35.955,96.182,35.953,97.742,35.95,99.301z"/>
		<path fill-rule="evenodd" clip-rule="evenodd" d="M45.485,94.611c0.002,1.565,0.002,3.131,0.004,4.694
			C45.487,97.742,45.487,96.177,45.485,94.611z"/>
		<path fill-rule="evenodd" clip-rule="evenodd" fill="#FDFDFD" d="M36.905,31.214c1.399-0.004,2.8-0.008,4.199-0.012
			C39.706,31.206,38.304,31.209,36.905,31.214z"/>
		<path fill-rule="evenodd" clip-rule="evenodd" fill="#FDFDFD" d="M72.454,94.715c0,1.446,0,2.89,0,4.334
			C72.454,97.604,72.454,96.161,72.454,94.715z"/>
		<path fill-rule="evenodd" clip-rule="evenodd" fill="#FDFDFD" d="M80.759,98.251c0-1.221,0-2.445-0.001-3.666
			C80.759,95.806,80.759,97.03,80.759,98.251z"/>
		<path fill-rule="evenodd" clip-rule="evenodd" fill="#FEFEFE" d="M76.401,66.263c0.316-0.068,0.87,0.304,0.823-0.439
			c0.126,0.678,0.79,0.42,1.164,0.669c-0.705-0.048-1.412-0.096-2.118-0.142C76.314,66.322,76.359,66.293,76.401,66.263z"/>
		<path fill-rule="evenodd" clip-rule="evenodd" d="M37.798,35.808c1.154,0,2.305,0.002,3.458,0.002
			C40.103,35.809,38.952,35.809,37.798,35.808z"/>
		<path fill-rule="evenodd" clip-rule="evenodd" fill="#FDFDFD" d="M83.559,94.715c-0.002,1.132-0.002,2.264-0.002,3.396
			C83.556,96.979,83.556,95.847,83.559,94.715z"/>
		<path fill-rule="evenodd" clip-rule="evenodd" fill="#FDFDFD" d="M42.581,95.113c0.041,0.951,0.08,1.907,0.106,2.863
			c0,0.031-0.176,0.067-0.269,0.105c0.051-0.729,0.105-1.456,0.149-2.188C42.585,95.634,42.576,95.372,42.581,95.113z"/>
		<path fill-rule="evenodd" clip-rule="evenodd" d="M64.489,78.181c-0.015,0.015-0.032,0.039-0.044,0.037
			c-0.016-0.003-0.028-0.027-0.041-0.043c0.015-0.013,0.03-0.029,0.045-0.043C64.461,78.15,64.476,78.165,64.489,78.181z"/>
		<path fill-rule="evenodd" clip-rule="evenodd" fill="#FDFDFD" d="M104.531,71.102c0.063-0.299,0.087-0.517,0.152-0.723
			c0.205-0.657,0.412-1.464,1.151-1.528c0.415-0.037,0.915,0.521,1.317,0.876c0.574,0.511,0.915,1.161,0.882,2
			C106.781,72.043,105.719,71.445,104.531,71.102z"/>
		<path fill-rule="evenodd" clip-rule="evenodd" fill="#FDFDFD" d="M59.237,95.875c-0.171,0.382-0.231,0.792-0.466,0.976
			c-0.254,0.2-0.677,0.25-1.016,0.225c-0.111-0.008-0.242-0.436-0.278-0.683c-0.047-0.323-0.039-0.66-0.002-0.986
			c0.027-0.257,0.117-0.715,0.209-0.724c0.325-0.026,0.741,0.007,0.974,0.199C58.927,95.106,59.042,95.52,59.237,95.875z"/>
		<path fill-rule="evenodd" clip-rule="evenodd" fill="#FBFBFB" d="M62.834,97.518c0.259-0.667,0.485-1.242,0.779-1.998
			c0.289,0.768,0.504,1.349,0.748,1.998C63.833,97.518,63.402,97.518,62.834,97.518z"/>
		<path fill-rule="evenodd" clip-rule="evenodd" fill="#FEFEFE" d="M123.339,97.215c0,0.087,0.002,0.175,0,0.264
			c-0.062,1.144-0.589,1.88-1.451,2.02c-0.979,0.159-1.979-0.425-2.299-1.475c-0.174-0.572-0.222-1.211-0.187-1.814
			c0.057-0.898,0.559-1.454,1.3-1.641c0.793-0.2,1.714,0.105,2.13,0.838c0.3,0.537,0.435,1.171,0.645,1.761
			C123.431,97.183,123.385,97.199,123.339,97.215z"/>
		<path fill-rule="evenodd" clip-rule="evenodd" fill="#FDFDFD" d="M87.208,95.816c0-0.153-0.002-0.305,0-0.458
			c0.008-0.736,0.374-0.953,1.032-0.614c0.5,0.255,0.739,0.857,0.587,1.541c-0.101,0.458-0.333,0.808-0.858,0.854
			c-0.489,0.047-0.829-0.067-0.765-0.666C87.227,96.257,87.208,96.036,87.208,95.816z"/>
		<path fill-rule="evenodd" clip-rule="evenodd" fill="#FDFDFD" d="M126.862,95.87c0-0.178-0.002-0.351,0-0.527
			c0.009-0.721,0.331-0.922,0.985-0.623c0.517,0.235,0.771,0.813,0.643,1.515c-0.091,0.488-0.326,0.856-0.883,0.907
			c-0.507,0.048-0.814-0.099-0.751-0.682C126.881,96.267,126.862,96.064,126.862,95.87z"/>
		<path fill-rule="evenodd" clip-rule="evenodd" fill="#FCFCFC" d="M94.899,95.906c-0.192,0.383-0.279,0.807-0.536,0.997
			c-0.256,0.188-0.69,0.192-1.031,0.161c-0.104-0.013-0.206-0.421-0.233-0.656c-0.041-0.323-0.037-0.657-0.002-0.983
			c0.025-0.262,0.116-0.735,0.188-0.737c0.349-0.007,0.779,0.012,1.032,0.208C94.59,95.111,94.699,95.536,94.899,95.906z"/>
		<path fill-rule="evenodd" clip-rule="evenodd" fill="#FCFCFC" d="M96.8,56.263c-0.277-0.111-0.556-0.223-0.833-0.334
			c0.151-0.333,0.218-0.778,0.474-0.976c0.337-0.261,0.814-0.404,1.247-0.46c0.52-0.067,0.795,0.367,0.596,0.862
			C98.024,55.998,97.55,56.31,96.8,56.263z"/>
		<path fill-rule="evenodd" clip-rule="evenodd" fill="#FCFCFC" d="M46.538,98.053c0-0.132-0.019-0.265,0.005-0.391
			c0.044-0.243,0.096-0.675,0.175-0.681c0.283-0.025,0.622,0.024,0.861,0.174c0.522,0.323,0.748,0.844,0.683,1.467
			c-0.058,0.564-0.469,0.896-1.037,0.861c-0.587-0.036-0.723-0.4-0.687-0.904C46.549,98.407,46.538,98.23,46.538,98.053z"/>
		<path fill-rule="evenodd" clip-rule="evenodd" fill="#FCFCFC" d="M46.504,95.547c0.188-0.318-0.295-0.92,0.436-0.961
			c0.547-0.035,0.95,0.475,0.936,1.114c-0.013,0.583-0.339,0.928-0.89,0.898C46.15,96.548,46.731,95.875,46.504,95.547z"/>
		<path fill-rule="evenodd" clip-rule="evenodd" fill="#FBFBFB" d="M113.446,97.522c-0.53,0-0.958,0-1.522,0
			c0.249-0.659,0.475-1.252,0.767-2.02C112.977,96.267,113.198,96.862,113.446,97.522z"/>
		<path fill-rule="evenodd" clip-rule="evenodd" fill="#FBFBFB" d="M53.037,97.509c-0.534,0-0.977,0-1.526,0
			c0.254-0.656,0.479-1.235,0.778-2.006C52.57,96.265,52.793,96.855,53.037,97.509z"/>
	</g>
</g>
</svg>
