<?xml version="1.0" encoding="utf-8"?>
<!-- Generator: Adobe Illustrator 18.0.0, SVG Export Plug-In . SVG Version: 6.00 Build 0)  -->

<svg version="1.1" id="Layer_1" xmlns="http://www.w3.org/2000/svg" xmlns:xlink="http://www.w3.org/1999/xlink" x="0px" y="0px"
	 width="612px" height="148.7px" viewBox="0 6.5 612 148.7" enable-background="new 0 6.5 612 148.7" xml:space="preserve">
<path d="M354.6,64.6h-17.4l-20.8,73.2c-42.2-27.4-92.4-43.4-146.3-43.4c-64.5,0-123.7,22.8-170.1,60.8
	c40.3-27.4,98.7-47.8,170.1-47.8c52.4,0,101,20.4,141.3,47.8h17.5l2-7.3l0,0L354.6,64.6 M370.4,155.2l11-90.5H364l-11,90.5H370.4z
	 M368.2,41l-12.3-12.3L343.6,41l12.3,12.3L368.2,41z M399.6,41l-12.3-12.3L375,41l12.3,12.3L399.6,41z M383.9,18.9L371.6,6.6
	l-12.3,12.2l12.3,12.3L383.9,18.9z M391.6,155.2V64.7h17.3v90.5H391.6z"/>
<path d="M459.5,28.5v-3.2h-3.4v3.2H459.5z M455.5,76.9v-3.3h-3.4v3.3H455.5z M456.1,29.9v3.2h3.4v-3.2H456.1z M455.5,30.7v-3.2h-3.4
	v3.2H455.5z M455.5,72.3v-3.2h-3.4v3.2H455.5z M473.8,17.6v2.9h-13.2v3.2h13.2v2.9h-11.5v3.3h11.5v2.7H464v3.3h9.8v1.5
	c0,1.4-1.1,3.3-3.5,3.3h-16.9v3.2H470c4,0,6.2-1.8,6.7-4.4h0.1v-1v-1.1l0,0V17.5l0,0v-0.1l0,0c0-3.2-2.3-5.5-6.8-5.5h-16.6v3.2h16.9
	C472.7,15.3,473.8,16.2,473.8,17.6z M456.1,54.2v3.2h3.4v-3.2H456.1z M469.1,61.6L469.1,61.6c-3.3,0-4.8-1.4-4.8-3.6v-0.5h9.5V58
	C473.7,60.2,472.2,61.6,469.1,61.6z M470.3,72.7c-0.1,2.2-1.6,3.7-4.7,3.7h-0.1c-3.2,0-4.7-1.4-4.7-3.6v-0.5h9.5V72.7L470.3,72.7z
	 M470.9,69h-13.1v3.4c0,4.3,2.5,7.3,7.6,7.3h0.1c4.9,0,7.5-2.8,7.8-7v-1c2.3-0.9,3.4-2.7,3.4-5l0,0V58v-0.1v-0.4l0,0v-1.7l0,0v-1.5
	h-15.4v3.4c0,4.3,2.5,7.3,7.6,7.3h0.1c2,0,3.6-0.5,4.8-1.3v3.1C473.8,68,472.9,68.9,470.9,69z M476.7,9.9V6.6h-23.1v3.3H476.7z
	 M477,108.7v-9.4l0,0v-5.1l0,0c-0.1-3.2-2.3-5.4-6.8-5.4h-16.6V92h16.9c2.4,0,3.5,0.9,3.5,2.3v1.4h-0.9c-4,0-7.2,3.5-7.2,11.4v0.7
	l3.3,0.1v-1c0-6.3,2-8.3,4-8.3l0.7,0.1v0.5l0,0v9.4L477,108.7L477,108.7z M456.1,58.9v3.2h3.4v-3.2H456.1z M453.8,83.4v3.2h23.1
	v-3.2H453.8z M510.4,119.8c0-1.6-0.5-3-1.6-3.9c1.1-1,1.6-2.3,1.6-3.9V78.1l0,0c0-1.6-0.6-2.9-1.7-3.8c1-1,1.5-2.3,1.5-3.8
	c0-3.2-2.2-5.5-6.8-5.5h-16.6v3.2h16.9c2.4,0,3.5,0.9,3.5,2.3c0,1.3-1.1,2.2-3.4,2.3h-0.2l0,0h-16.8V76h16.6h0.7
	c2.2,0.1,3.3,1,3.3,2.3V88l-10.2,3.6l-10-4.4v3.7l10.7,4.2l9.5-3.5v20.3l0,0c0,1.4-1.1,2.3-3.5,2.3l0,0h-0.3h-9.3v3.2h9.6
	c2.4,0,3.5,0.9,3.5,2.3l0,0v4c-0.1,1.3-1.1,2.2-3.5,2.2H487v3.2h16.6c4.5,0,6.7-2.2,6.8-5.4l0,0v-0.1l0,0V119.8L510.4,119.8z
	 M510.4,137.4L510.4,137.4v-0.1l0,0c-0.1-3.2-2.3-5.4-6.8-5.4h-0.9v3.2h1.2c2.4,0,3.5,0.9,3.5,2.3V150c0,1.4-1.1,2.3-3.5,2.3h-1.2
	v3.2h0.9c4.5,0,6.7-2.2,6.8-5.4l0,0V150l0,0l0,0V137.4L510.4,137.4z M489.3,140.7v3.3h3.4v-3.3H489.3z M493.1,116.1v-3.3h-3.4v3.2
	L493.1,116.1L493.1,116.1z M489.7,117.4v3.2h3.4v-3.2C493.1,117.4,489.7,117.4,489.7,117.4z M440.3,144.1h-0.5
	c-2.4,0-4.3-2.2-4.3-8.3v-0.7c0-6,1.9-8.3,4.2-8.3h0.5L440.3,144.1L440.3,144.1z M446.2,144.2h-2.7v-20.4H440
	c-4.9,0-7.8,3.8-7.8,11.2v0.7c0,3.7,0.7,6.5,2.1,8.3h-4.6v3.2h16.9c2.4,0,3.5,0.9,3.5,2.3s-1.1,2.3-3.5,2.3h-16.9v3.2h16.6
	c4.6,0,6.8-2.3,6.8-5.5C453,146.4,450.8,144.2,446.2,144.2z M425.7,136.9v3.3h3.4v-3.3H425.7z M435,81.8h-0.9
	c-3.8,0-5.8-0.9-5.8-2.2c0-1.3,2-2.2,5.8-2.2h0.9c3.8,0,5.8,0.9,5.8,2.2S438.8,81.8,435,81.8z M447.9,115h-4.3V80.8h-0.1l0.2-1.1
	c0-3-3-5.3-8.6-5.3h-0.8c-5.6,0-8.7,2.3-8.7,5.3s3.1,5.3,8.7,5.3h0.8c2.2,0,4-0.4,5.3-1v11.8h-9.9c-1.8,0-2.5-0.9-2.5-2.2
	c0-0.5,0.2-1.3,0.4-1.9h-3.2c-0.2,0.6-0.3,1.4-0.3,2.3c0,3.1,1.8,5,5.4,5h10.1v15.8h-10.3v3.3h17.6c1.8,0,2.5,0.9,2.5,2.1
	c0,0.5-0.2,1.3-0.4,1.9h3.2c0.2-0.6,0.3-1.4,0.3-2.3C453.3,116.9,451.5,115,447.9,115z M483.9,137.6L483.9,137.6v-0.1l0,0
	c-0.1-3.2-2.3-5.4-6.8-5.4H477v-0.7c0-3.2-2.2-5.5-6.8-5.5h-16.6v3.2h16.9c2.4,0,3.5,0.9,3.5,2.3v8.6h3v-4.7h0.4
	c2.4,0,3.5,0.9,3.5,2.3v12.6c0,1.4-1.1,2.3-3.5,2.3h-1.2v3.2h0.9c4.5,0,6.7-2.2,6.8-5.4l0,0v-0.1l0,0l0,0L483.9,137.6L483.9,137.6
	L483.9,137.6z M473.9,115.7c-0.1,2.2-1.6,3.6-4.7,3.6h-0.1c-3.2,0-4.7-1.4-4.7-3.6v-0.4h9.5L473.9,115.7L473.9,115.7z M481.2,112
	h-4.3l0,0h-15.5v3.4c0,4.3,2.5,7.3,7.6,7.3h0.1c4.9,0,7.5-2.8,7.8-7v-0.3h4.1c1.8,0,2.5,0.9,2.5,2.2c0,0.5-0.2,1.3-0.4,1.9h3.2
	c0.2-0.6,0.3-1.4,0.3-2.3C486.7,114,484.9,112,481.2,112z M489.3,145.3v3.2h3.4v-3.2H489.3z M512.7,142.8v3.3h3.4v-3.3H512.7z
	 M463.2,50.3h17.7c1.7,0,2.5,0.9,2.5,2.2c0,0.5-0.2,1.3-0.4,1.9h3.2c0.2-0.6,0.3-1.4,0.3-2.3c0-3-1.8-5-5.4-5h-17.8L463.2,50.3
	L463.2,50.3z M611.6,103l-13.3,4.7l-10.1-4.4v3.8l10.8,4.3h-10.8v3.3h23.4v-3.3H605l-2.9-1.2l9.6-3.4V103H611.6z M603.4,82.9
	l-9.4-1.7l9.4-1.7V82.9z M611.6,84.3l-5.2-0.9V79l5.2-0.9v-3.3l-23.5,4.7V83l23.5,4.7V84.3z M611.6,72.8v-3.3h-23.4v3.3H611.6z
	 M611.6,92.7h-10.1v-4.4h-3.1v4.4h-7.1v-5h-3.1V96h23.4L611.6,92.7L611.6,92.7z M608.6,152.4h-7.3V152c0-2.4,1.3-3.9,3.6-3.9h0.1
	c2.3,0,3.5,1.6,3.5,4v0.3H608.6z M598.4,152.4h-7.1v-0.5c0-2.2,1.1-3.6,3.4-3.6h0.1c2.3,0,3.6,1.4,3.6,3.7V152.4z M605.3,144.7h-0.2
	c-3,0-4.6,1.7-5.3,4c-0.8-1.8-2.3-3.7-5.4-3.7h-0.1c-4.1,0-5.9,3.4-5.9,7.3v3.4h23.4v-3.3C611.6,147.9,609.3,144.7,605.3,144.7z
	 M554.8,91.9H569L554.8,97v3.2h23.4V97h-14.7l14.7-5.3v-3h-23.4V91.9z M599.4,120.4h1c6,0,8.5,1.1,8.5,2.7s-2.4,2.7-8.5,2.7h-1
	c-6.1,0-8.5-1.1-8.5-2.7S593.3,120.4,599.4,120.4z M599.4,129.1h1c7.9,0,11.5-2.5,11.5-6.1s-3.6-6-11.5-6h-1c-7.9,0-11.5,2.5-11.5,6
	C587.9,126.6,591.5,129.1,599.4,129.1z M557.9,126.4h-3.1v9.7h3.1v-3.2h20.3v-3.3h-20.3V126.4z M575.1,121.1h-7.2v-4.8h-3.1v4.8
	h-6.9v-5.3h-3.1v8.7h23.4v-8.8h-3.1L575.1,121.1L575.1,121.1z M554.8,141.2H569l-14.2,5.1v3.2h23.4v-3.2h-14.7l14.7-5.3v-3h-23.4
	V141.2z M554.8,152.4v3.3h23.4v-3.3H554.8z M566.7,110.1h-8.8v-0.5c0-2.2,1.1-3.8,4.3-3.8h0.2c3,0,4.3,1.5,4.3,3.7V110.1z
	 M562.3,102.5h-0.2c-5,0-7.3,3-7.3,7.1v3.8h23.4v-3.3h-8.5v-0.9v-0.4l8.6-3.2V102l-9.6,3.6C567.4,103.8,565.4,102.5,562.3,102.5z
	 M539.2,145.8L539.2,145.8c-2.7,0-4.3,0.8-8,3.9c-2.5,2.2-3.2,2.6-4.5,2.6h-0.1c-1.5,0-2.4-1.1-2.4-2.4c0-1.1,0.4-2,1.1-3.3h-3.5
	c-0.5,1-0.8,2.1-0.8,3.6c0,3,2.3,5.4,5.7,5.4h0.1c2.6,0,4.1-1,7.6-3.9c2.6-2.2,3.5-2.6,4.9-2.6h0.1c1.6,0,2.4,1.1,2.4,2.5
	c0,1.1-0.5,2.4-1.4,3.8h3.5c0.6-1.2,1.1-2.6,1.1-4.1C545,148.3,542.7,145.8,539.2,145.8z M600.1,63.2h-8.8v-0.5
	c0-2.2,1.1-3.8,4.3-3.8h0.2c3,0,4.3,1.5,4.3,3.7V63.2z M611.6,63.2h-8.5v-0.9v-0.4l8.6-3.2v-3.6l-9.6,3.6c-1.1-1.9-3.1-3.2-6.3-3.2
	h-0.2c-5,0-7.3,3-7.3,7.1v3.8h23.4L611.6,63.2L611.6,63.2z M600.4,139.7h-1c-6.1,0-8.5-1.1-8.5-2.7s2.4-2.7,8.5-2.7h1
	c6,0,8.5,1.1,8.5,2.7S606.5,139.7,600.4,139.7z M600.4,131h-1c-7.9,0-11.5,2.5-11.5,6.1s3.6,6.1,11.5,6.1h1c7.9,0,11.5-2.5,11.5-6.1
	S608.3,131,600.4,131z M539.4,96.4h-18.1v3.4h17.9c1.8,0,2.5,0.9,2.5,2.2c0,0.5-0.2,1.3-0.4,1.9h3.2c0.2-0.6,0.3-1.4,0.3-2.3
	C544.9,98.5,543.1,96.4,539.4,96.4z M544.7,135.9v-3.3h-23.4v3.3h10.1v4.7h-10.1v3.3h23.4v-3.3h-10.2v-4.7H544.7L544.7,135.9z
	 M536.6,90.4l-9.4-1.7l9.4-1.7V90.4z M544.7,91.8l-5.2-0.9v-4.4l5.2-0.9v-3.3L521.2,87v3.5l23.5,4.7V91.8z M544.7,77.1h-10.2v-4.7
	h10.2v-3.3h-23.4v3.3h10.1v4.7h-10.1v3.3h23.4V77.1z M533.2,112.9h-8.8v-0.5c0-2.2,1.1-3.8,4.3-3.8h0.2c3,0,4.3,1.5,4.3,3.7V112.9z
	 M544.7,104.9l-9.6,3.6c-1.1-1.8-3.1-3.2-6.2-3.2h-0.2c-5,0-7.3,3-7.3,7.1v3.8h23.4v-3.3h-8.5V112v-0.4l8.6-3.2L544.7,104.9
	L544.7,104.9z M567,53.6h-1c-6.1,0-8.5-1.1-8.5-2.7s2.4-2.7,8.5-2.7h1c6,0,8.5,1.1,8.5,2.7C575.5,52.5,573,53.6,567,53.6z M567,44.9
	h-1c-7.9,0-11.5,2.5-11.5,6.1s3.6,6.1,11.5,6.1h1c7.9,0,11.5-2.5,11.5-6.1S574.9,44.9,567,44.9z M570,78.9v3.4l-9.4-1.7L570,78.9z
	 M554.7,82.3l23.5,4.7v-3.2l-5.2-0.9v-4.4l5.2-0.9v-3.3L554.7,79V82.3z M554.8,59.5v3.3h23.4v-3.3H554.8z M536.6,126.2l-9.4-1.7
	l9.4-1.7V126.2z M544.7,127.7l-5.2-0.9v-4.4l5.2-0.9v-3.3l-23.5,4.7v3.5l23.5,4.7V127.7z M557.9,64.8h-3.1v9.7h3.1v-3.2h20.3V68
	h-20.3V64.8z M578.2,31h-23.4v3.2H569l-14.2,5.1v3.2h23.4v-3.2h-14.7l14.7-5.3V31z M578.2,6.5h-3.1v4.8h-20.3v3.3h23.4L578.2,6.5
	L578.2,6.5z M570,24.6l-9.4-1.7l9.4-1.7V24.6z M578.2,26.1l-5.2-0.9v-4.4l5.2-0.9v-3.3l-23.5,4.7v3.5l23.5,4.7V26.1z"/>
</svg>
